<svg width="16" height="16" viewBox="0 0 16 16" fill="none" xmlns="http://www.w3.org/2000/svg">
<path d="M1 4.50197H15M2.74705 1H13.2529C13.4824 1 13.7096 1.04529 13.9215 1.13329C14.1335 1.22128 14.3261 1.35026 14.4883 1.51285C14.6505 1.67545 14.7792 1.86847 14.867 2.08091C14.9548 2.29335 15 2.52104 15 2.75098V13.2481C15.0001 13.6899 14.8337 14.1154 14.534 14.4393C14.2343 14.7632 13.8235 14.9616 13.384 14.9947L13.2442 15L2.73832 14.9492C2.27648 14.9469 1.83436 14.7614 1.50861 14.4333C1.18286 14.1052 0.999994 13.6611 1 13.1982V2.75098C1 2.28659 1.18406 1.84123 1.5117 1.51285C1.83934 1.18448 2.2837 1 2.74705 1Z" stroke="#999999" stroke-linecap="round" stroke-linejoin="round"/>
<path d="M4.17723 8.00397C4.17723 7.83255 4.3166 7.68899 4.49418 7.68899C4.67177 7.68899 4.81114 7.83255 4.81114 8.00397C4.81114 8.1754 4.67177 8.31896 4.49418 8.31896C4.3166 8.31896 4.17723 8.1754 4.17723 8.00397Z" fill="#999999" stroke="#999999" stroke-width="2.38095"/>
</svg>
