<svg width="44" height="44" viewBox="0 0 44 44" fill="none" xmlns="http://www.w3.org/2000/svg">
<path d="M22 0.125C27.8016 0.125 33.3656 2.42968 37.468 6.53204C41.5703 10.6344 43.875 16.1984 43.875 22C43.875 27.8016 41.5703 33.3656 37.468 37.468C33.3656 41.5703 27.8016 43.875 22 43.875C16.1984 43.875 10.6344 41.5703 6.53204 37.468C2.42968 33.3656 0.125 27.8016 0.125 22C0.125 16.1984 2.42968 10.6344 6.53204 6.53204C10.6344 2.42968 16.1984 0.125 22 0.125ZM22 19.3469L16.9188 14.2656C16.5669 13.9138 16.0897 13.7161 15.5922 13.7161C15.0946 13.7161 14.6175 13.9138 14.2656 14.2656C13.9138 14.6175 13.7161 15.0946 13.7161 15.5922C13.7161 16.0897 13.9138 16.5669 14.2656 16.9188L19.3469 22L14.2656 27.0813C14.0914 27.2555 13.9532 27.4623 13.859 27.6899C13.7647 27.9175 13.7161 28.1614 13.7161 28.4078C13.7161 28.6542 13.7647 28.8981 13.859 29.1257C13.9532 29.3534 14.0914 29.5602 14.2656 29.7344C14.4398 29.9086 14.6466 30.0468 14.8743 30.1411C15.1019 30.2353 15.3458 30.2839 15.5922 30.2839C15.8386 30.2839 16.0825 30.2353 16.3101 30.1411C16.5377 30.0468 16.7445 29.9086 16.9188 29.7344L22 24.6531L27.0813 29.7344C27.2555 29.9086 27.4623 30.0468 27.6899 30.1411C27.9175 30.2353 28.1614 30.2839 28.4078 30.2839C28.6542 30.2839 28.8981 30.2353 29.1257 30.1411C29.3534 30.0468 29.5602 29.9086 29.7344 29.7344C29.9086 29.5602 30.0468 29.3534 30.1411 29.1257C30.2353 28.8981 30.2839 28.6542 30.2839 28.4078C30.2839 28.1614 30.2353 27.9175 30.1411 27.6899C30.0468 27.4623 29.9086 27.2555 29.7344 27.0813L24.6531 22L29.7344 16.9188C29.9086 16.7445 30.0468 16.5377 30.1411 16.3101C30.2353 16.0825 30.2839 15.8386 30.2839 15.5922C30.2839 15.3458 30.2353 15.1019 30.1411 14.8743C30.0468 14.6466 29.9086 14.4398 29.7344 14.2656C29.5602 14.0914 29.3534 13.9532 29.1257 13.859C28.8981 13.7647 28.6542 13.7161 28.4078 13.7161C28.1614 13.7161 27.9175 13.7647 27.6899 13.859C27.4623 13.9532 27.2555 14.0914 27.0813 14.2656L22 19.3469Z" fill="#443E3E"/>
</svg>
