<svg width="26" height="26" viewBox="0 0 26 26" fill="none" xmlns="http://www.w3.org/2000/svg">
<g clip-path="url(#clip0_559_315)">
<path d="M25.7863 12.5397C25.7863 5.646 20.1503 0.0522461 13.206 0.0522461C6.26169 0.0522461 0.625732 5.646 0.625732 12.5397C0.625732 16.3366 2.36181 19.7585 5.07914 22.0554C5.10431 22.0804 5.12947 22.0804 5.12947 22.1054C5.35591 22.2804 5.58236 22.4554 5.83396 22.6304C5.95976 22.7054 6.06041 22.8038 6.18621 22.9038C8.2652 24.3044 10.7194 25.0528 13.2312 25.0522C15.7429 25.0528 18.1971 24.3044 20.2761 22.9038C20.4019 22.8288 20.5025 22.7304 20.6283 22.6538C20.8548 22.4804 21.1064 22.3054 21.3328 22.1304C21.358 22.1054 21.3832 22.1054 21.3832 22.0804C24.0502 19.7569 25.7863 16.3366 25.7863 12.5397ZM13.206 23.4788C10.8409 23.4788 8.6771 22.7288 6.8907 21.4804C6.91586 21.2804 6.96618 21.0819 7.01651 20.8819C7.16643 20.3399 7.38631 19.8194 7.67068 19.3335C7.94744 18.8585 8.27453 18.4335 8.6771 18.0585C9.05451 17.6835 9.5074 17.3351 9.96029 17.0601C10.4383 16.7851 10.9415 16.5851 11.4951 16.4351C12.0529 16.2857 12.6282 16.2105 13.206 16.2116C14.9211 16.1996 16.5731 16.8532 17.8104 18.0335C18.3891 18.6085 18.8419 19.2835 19.169 20.0569C19.3452 20.5069 19.471 20.9819 19.5464 21.4804C17.6896 22.7775 15.4758 23.4752 13.206 23.4788ZM9.35643 11.9163C9.13474 11.412 9.02326 10.8666 9.02935 10.3163C9.02935 9.76787 9.12999 9.21787 9.35643 8.71787C9.58288 8.21787 9.8848 7.76943 10.2622 7.39443C10.6396 7.01943 11.0925 6.721 11.5957 6.496C12.0989 6.271 12.6525 6.171 13.206 6.171C13.7847 6.171 14.3131 6.271 14.8163 6.496C15.3195 6.721 15.7724 7.021 16.1498 7.39443C16.5272 7.76943 16.8291 8.21943 17.0556 8.71787C17.282 9.21787 17.3826 9.76787 17.3826 10.3163C17.3826 10.8913 17.282 11.4163 17.0556 11.9147C16.837 12.4073 16.5301 12.8563 16.1498 13.2397C15.7638 13.6171 15.3119 13.9215 14.8163 14.1382C13.7766 14.5627 12.6103 14.5627 11.5706 14.1382C11.0749 13.9215 10.6231 13.6171 10.2371 13.2397C9.85621 12.8619 9.55661 12.4111 9.35643 11.9147V11.9163ZM21.0309 20.2069C21.0309 20.1569 21.0058 20.1319 21.0058 20.0819C20.7583 19.2998 20.3936 18.5592 19.9239 17.8851C19.4537 17.206 18.8759 16.6071 18.2129 16.1116C17.7066 15.7331 17.1578 15.4143 16.5775 15.1616C16.8415 14.9886 17.0861 14.7879 17.3072 14.5632C17.6823 14.1952 18.0117 13.784 18.2884 13.3382C18.8457 12.4285 19.1334 11.3811 19.1187 10.3163C19.1265 9.52805 18.9724 8.7465 18.6658 8.01943C18.3631 7.31887 17.9275 6.6828 17.3826 6.146C16.8386 5.61479 16.1983 5.19067 15.4956 4.896C14.7627 4.59192 13.9751 4.43934 13.1808 4.44756C12.3865 4.43984 11.5989 4.59295 10.8661 4.89756C10.1573 5.1916 9.51543 5.62472 8.97903 6.171C8.44443 6.71098 8.01757 7.34665 7.721 8.04443C7.41443 8.7715 7.26033 9.55305 7.26811 10.3413C7.26811 10.8913 7.34359 11.4163 7.49455 11.9147C7.64552 12.4397 7.8468 12.9147 8.12357 13.3632C8.37517 13.8132 8.72742 14.2132 9.10483 14.5882C9.33127 14.8132 9.58288 15.0116 9.85964 15.1866C9.27755 15.4461 8.72855 15.7734 8.22421 16.1616C7.57004 16.6616 6.99134 17.2601 6.51329 17.9101C6.0388 18.5814 5.67369 19.3227 5.43139 20.1069C5.40623 20.1569 5.40623 20.2069 5.40623 20.2319C3.41855 18.2335 2.18568 15.5366 2.18568 12.5397C2.18568 6.521 7.14231 1.60068 13.206 1.60068C19.2697 1.60068 24.2263 6.521 24.2263 12.5397C24.223 15.4147 23.0741 18.1713 21.0309 20.2069Z" fill="white"/>
</g>
<defs>
<clipPath id="clip0_559_315">
<rect width="25.1605" height="25.1006" fill="white" transform="translate(0.625732 0.0522461)"/>
</clipPath>
</defs>
</svg>
