<svg width="11" height="11" viewBox="0 0 11 11" fill="none" xmlns="http://www.w3.org/2000/svg">
<path d="M3.35709 6.92857H5.49995M9.78566 9.07143V1.92857C9.78566 1.54969 9.63515 1.18633 9.36724 0.918419C9.09933 0.65051 8.73597 0.5 8.35709 0.5H2.6428C2.26392 0.5 1.90056 0.65051 1.63265 0.918419C1.36474 1.18633 1.21423 1.54969 1.21423 1.92857V9.07143C1.21423 9.45031 1.36474 9.81367 1.63265 10.0816C1.90056 10.3495 2.26392 10.5 2.6428 10.5H8.35709C8.73597 10.5 9.09933 10.3495 9.36724 10.0816C9.63515 9.81367 9.78566 9.45031 9.78566 9.07143V9.07143ZM3.35709 4.07143H6.92852H3.35709ZM3.35709 5.5H7.64281H3.35709Z" stroke="#909090" stroke-width="0.5" stroke-linecap="round" stroke-linejoin="round"/>
</svg>
