<svg width="96" height="17" viewBox="0 0 96 17" fill="none" xmlns="http://www.w3.org/2000/svg">
<path d="M24.375 14H21.233V3.81818H24.5142C25.5019 3.81818 26.3471 4.02202 27.0497 4.42969C27.7524 4.83404 28.291 5.41572 28.6655 6.17472C29.04 6.9304 29.2273 7.83523 29.2273 8.8892C29.2273 9.94981 29.0384 10.8629 28.6605 11.6286C28.2827 12.3909 27.7325 12.9775 27.0099 13.3885C26.2874 13.7962 25.4091 14 24.375 14ZM22.4659 12.9062H24.2955C25.1373 12.9062 25.835 12.7438 26.3885 12.419C26.942 12.0942 27.3546 11.6319 27.6264 11.032C27.8982 10.4321 28.0341 9.7178 28.0341 8.8892C28.0341 8.06723 27.8999 7.35961 27.6314 6.76633C27.3629 6.16974 26.9619 5.71236 26.4283 5.39418C25.8946 5.07268 25.2301 4.91193 24.4347 4.91193H22.4659V12.9062ZM34.2386 14.1591C33.5492 14.1591 32.9444 13.995 32.424 13.6669C31.907 13.3388 31.5026 12.8797 31.2109 12.2898C30.9226 11.6998 30.7784 11.0104 30.7784 10.2216C30.7784 9.42614 30.9226 8.73177 31.2109 8.13849C31.5026 7.54522 31.907 7.08452 32.424 6.75639C32.9444 6.42827 33.5492 6.2642 34.2386 6.2642C34.928 6.2642 35.5313 6.42827 36.0483 6.75639C36.5687 7.08452 36.973 7.54522 37.2614 8.13849C37.553 8.73177 37.6989 9.42614 37.6989 10.2216C37.6989 11.0104 37.553 11.6998 37.2614 12.2898C36.973 12.8797 36.5687 13.3388 36.0483 13.6669C35.5313 13.995 34.928 14.1591 34.2386 14.1591ZM34.2386 13.1051C34.7623 13.1051 35.1932 12.9709 35.5312 12.7024C35.8693 12.4339 36.1196 12.081 36.282 11.6435C36.4444 11.206 36.5256 10.732 36.5256 10.2216C36.5256 9.71117 36.4444 9.23556 36.282 8.79474C36.1196 8.35393 35.8693 7.99763 35.5312 7.72585C35.1932 7.45407 34.7623 7.31818 34.2386 7.31818C33.715 7.31818 33.2841 7.45407 32.946 7.72585C32.608 7.99763 32.3577 8.35393 32.1953 8.79474C32.0329 9.23556 31.9517 9.71117 31.9517 10.2216C31.9517 10.732 32.0329 11.206 32.1953 11.6435C32.3577 12.081 32.608 12.4339 32.946 12.7024C33.2841 12.9709 33.715 13.1051 34.2386 13.1051ZM42.5922 14.1591C41.8762 14.1591 41.2598 13.9901 40.7427 13.652C40.2257 13.3139 39.8279 12.8482 39.5495 12.255C39.2711 11.6617 39.1319 10.9839 39.1319 10.2216C39.1319 9.44602 39.2744 8.7616 39.5595 8.16832C39.8478 7.57173 40.2489 7.10606 40.7626 6.77131C41.2797 6.43324 41.8829 6.2642 42.5723 6.2642C43.1092 6.2642 43.5931 6.36364 44.024 6.5625C44.4548 6.76136 44.8078 7.03977 45.0829 7.39773C45.358 7.75568 45.5287 8.1733 45.595 8.65057H44.4217C44.3322 8.30256 44.1333 7.99432 43.8251 7.72585C43.5202 7.45407 43.1092 7.31818 42.5922 7.31818C42.1348 7.31818 41.7337 7.4375 41.389 7.67614C41.0476 7.91146 40.7808 8.24455 40.5886 8.67543C40.3997 9.10298 40.3052 9.60511 40.3052 10.1818C40.3052 10.7718 40.398 11.2855 40.5836 11.723C40.7725 12.1605 41.0377 12.5002 41.3791 12.7422C41.7238 12.9841 42.1281 13.1051 42.5922 13.1051C42.8971 13.1051 43.1738 13.0521 43.4224 12.946C43.671 12.84 43.8815 12.6875 44.0538 12.4886C44.2261 12.2898 44.3488 12.0511 44.4217 11.7727H45.595C45.5287 12.2235 45.3646 12.6295 45.1028 12.9908C44.8443 13.3487 44.5012 13.6338 44.0737 13.8459C43.6494 14.0547 43.1556 14.1591 42.5922 14.1591ZM52.1227 10.8778V6.36364H53.296V14H52.1227V12.7074H52.0431C51.8642 13.0952 51.5858 13.425 51.2079 13.6967C50.8301 13.9652 50.3528 14.0994 49.7761 14.0994C49.2988 14.0994 48.8746 13.995 48.5034 13.7862C48.1322 13.5741 47.8405 13.2559 47.6284 12.8317C47.4163 12.4041 47.3102 11.8655 47.3102 11.2159V6.36364H48.4835V11.1364C48.4835 11.6932 48.6393 12.1373 48.9508 12.4688C49.2657 12.8002 49.6667 12.9659 50.1539 12.9659C50.4456 12.9659 50.7422 12.8913 51.0439 12.7422C51.3488 12.593 51.604 12.3643 51.8095 12.0561C52.0183 11.7479 52.1227 11.3551 52.1227 10.8778ZM55.445 14V6.36364H56.5785V7.55682H56.6779C56.837 7.14915 57.0939 6.83262 57.4485 6.60724C57.8031 6.37855 58.229 6.2642 58.7262 6.2642C59.23 6.2642 59.6493 6.37855 59.984 6.60724C60.3221 6.83262 60.5856 7.14915 60.7745 7.55682H60.854C61.0496 7.16241 61.3429 6.84919 61.734 6.61719C62.1251 6.38187 62.5941 6.2642 63.141 6.2642C63.8237 6.2642 64.3822 6.47798 64.8164 6.90554C65.2506 7.32978 65.4677 7.991 65.4677 8.8892V14H64.2944V8.8892C64.2944 8.32576 64.1403 7.92306 63.832 7.68111C63.5238 7.43916 63.1609 7.31818 62.7433 7.31818C62.2063 7.31818 61.7904 7.48059 61.4954 7.8054C61.2004 8.12689 61.0529 8.53456 61.0529 9.02841V14H59.8597V8.76989C59.8597 8.3357 59.7189 7.98603 59.4371 7.72088C59.1554 7.45241 58.7925 7.31818 58.3484 7.31818C58.0434 7.31818 57.7584 7.39938 57.4933 7.56179C57.2314 7.72419 57.0193 7.94957 56.8569 8.23793C56.6978 8.52296 56.6183 8.85275 56.6183 9.22727V14H55.445ZM70.8146 14.1591C70.0788 14.1591 69.4441 13.9967 68.9105 13.6719C68.3802 13.3438 67.9709 12.8864 67.6825 12.2997C67.3975 11.7098 67.255 11.0237 67.255 10.2415C67.255 9.45928 67.3975 8.76989 67.6825 8.1733C67.9709 7.57339 68.3719 7.10606 68.8857 6.77131C69.4027 6.43324 70.0059 6.2642 70.6953 6.2642C71.093 6.2642 71.4858 6.33049 71.8736 6.46307C72.2614 6.59564 72.6143 6.81108 72.9325 7.10938C73.2507 7.40436 73.5043 7.79545 73.6932 8.28267C73.8821 8.76989 73.9766 9.36979 73.9766 10.0824V10.5795H68.0902V9.56534H72.7834C72.7834 9.13447 72.6972 8.75 72.5249 8.41193C72.3558 8.07386 72.1139 7.80705 71.799 7.61151C71.4875 7.41596 71.1196 7.31818 70.6953 7.31818C70.228 7.31818 69.8236 7.43419 69.4822 7.66619C69.1442 7.89489 68.884 8.19318 68.7017 8.56108C68.5194 8.92898 68.4283 9.32339 68.4283 9.74432V10.4205C68.4283 10.9972 68.5277 11.486 68.7266 11.8871C68.9287 12.2848 69.2088 12.5881 69.5668 12.7969C69.9247 13.0024 70.3407 13.1051 70.8146 13.1051C71.1229 13.1051 71.4013 13.062 71.6499 12.9759C71.9018 12.8864 72.1188 12.7538 72.3011 12.5781C72.4834 12.3991 72.6243 12.1771 72.7237 11.9119L73.8572 12.2301C73.7379 12.6146 73.5374 12.9527 73.2557 13.2443C72.974 13.5327 72.6259 13.758 72.2116 13.9205C71.7973 14.0795 71.3317 14.1591 70.8146 14.1591ZM76.9347 9.40625V14H75.7614V6.36364H76.8949V7.55682H76.9943C77.1733 7.16903 77.4451 6.85748 77.8097 6.62216C78.1742 6.38352 78.6449 6.2642 79.2216 6.2642C79.7386 6.2642 80.1911 6.37027 80.5788 6.58239C80.9666 6.79119 81.2682 7.10938 81.4837 7.53693C81.6991 7.96117 81.8068 8.49811 81.8068 9.14773V14H80.6335V9.22727C80.6335 8.62737 80.4777 8.16004 80.1662 7.82528C79.8546 7.48722 79.4271 7.31818 78.8835 7.31818C78.509 7.31818 78.1742 7.39938 77.8793 7.56179C77.5876 7.72419 77.3572 7.96117 77.1882 8.27273C77.0192 8.58428 76.9347 8.96212 76.9347 9.40625ZM87.2718 6.36364V7.35795H83.3145V6.36364H87.2718ZM84.4679 4.53409H85.6412V11.8125C85.6412 12.1439 85.6892 12.3925 85.7853 12.5582C85.8848 12.7206 86.0107 12.83 86.1632 12.8864C86.319 12.9394 86.483 12.9659 86.6554 12.9659C86.7846 12.9659 86.8907 12.9593 86.9735 12.946C87.0564 12.9295 87.1227 12.9162 87.1724 12.9062L87.411 13.9602C87.3315 13.9901 87.2205 14.0199 87.0779 14.0497C86.9354 14.0829 86.7548 14.0994 86.536 14.0994C86.2046 14.0994 85.8798 14.0282 85.5616 13.8857C85.2467 13.7431 84.9849 13.526 84.7761 13.2344C84.5706 12.9427 84.4679 12.5748 84.4679 12.1307V4.53409ZM94.3091 8.07386L93.2551 8.37216C93.1889 8.1965 93.0911 8.0258 92.9618 7.86009C92.8359 7.69105 92.6635 7.55185 92.4448 7.44247C92.226 7.3331 91.946 7.27841 91.6046 7.27841C91.1373 7.27841 90.7478 7.38613 90.4363 7.60156C90.128 7.81368 89.9739 8.08381 89.9739 8.41193C89.9739 8.7036 90.08 8.93395 90.2921 9.10298C90.5042 9.27202 90.8356 9.41288 91.2864 9.52557L92.4199 9.80398C93.1027 9.9697 93.6114 10.2232 93.9462 10.5646C94.281 10.9027 94.4483 11.3385 94.4483 11.8722C94.4483 12.3097 94.3224 12.7008 94.0705 13.0455C93.8219 13.3902 93.4739 13.6619 93.0265 13.8608C92.579 14.0597 92.0587 14.1591 91.4654 14.1591C90.6865 14.1591 90.0418 13.9901 89.5314 13.652C89.021 13.3139 88.6979 12.8201 88.562 12.1705L89.6756 11.892C89.7817 12.303 89.9822 12.6113 90.2772 12.8168C90.5755 13.0223 90.9649 13.125 91.4455 13.125C91.9924 13.125 92.4266 13.009 92.748 12.777C93.0729 12.5417 93.2353 12.2599 93.2353 11.9318C93.2353 11.6667 93.1425 11.4446 92.9569 11.2656C92.7712 11.0833 92.4862 10.9474 92.1017 10.858L90.829 10.5597C90.1297 10.3939 89.6159 10.1371 89.2878 9.78906C88.963 9.43774 88.8006 8.99858 88.8006 8.47159C88.8006 8.04072 88.9216 7.65956 89.1635 7.32812C89.4088 6.99669 89.7419 6.73651 90.1628 6.54758C90.5871 6.35866 91.0676 6.2642 91.6046 6.2642C92.3603 6.2642 92.9535 6.42992 93.3844 6.76136C93.8186 7.0928 94.1268 7.5303 94.3091 8.07386Z" fill="#443E3E"/>
<path d="M5.35709 9.92857H7.49995M11.7857 12.0714V4.92857C11.7857 4.54969 11.6352 4.18633 11.3672 3.91842C11.0993 3.65051 10.736 3.5 10.3571 3.5H4.6428C4.26392 3.5 3.90056 3.65051 3.63265 3.91842C3.36474 4.18633 3.21423 4.54969 3.21423 4.92857V12.0714C3.21423 12.4503 3.36474 12.8137 3.63265 13.0816C3.90056 13.3495 4.26392 13.5 4.6428 13.5H10.3571C10.736 13.5 11.0993 13.3495 11.3672 13.0816C11.6352 12.8137 11.7857 12.4503 11.7857 12.0714V12.0714ZM5.35709 7.07143H8.92852H5.35709ZM5.35709 8.5H9.64281H5.35709Z" stroke="#909090" stroke-width="0.5" stroke-linecap="round" stroke-linejoin="round"/>
</svg>
