<svg width="60" height="17" viewBox="0 0 60 17" fill="none" xmlns="http://www.w3.org/2000/svg">
<rect y="1" width="20" height="14.2857" rx="2" fill="white"/>
<mask id="mask0_133_747" style="mask-type:alpha" maskUnits="userSpaceOnUse" x="0" y="1" width="20" height="15">
<rect y="1" width="20" height="14.2857" rx="2" fill="white"/>
</mask>
<g mask="url(#mask0_133_747)">
<path fill-rule="evenodd" clip-rule="evenodd" d="M20 1H0V1.95238H20V1ZM20 2.90476H0V3.85714H20V2.90476ZM0 4.80952H20V5.7619H0V4.80952ZM20 6.71429H0V7.66667H20V6.71429ZM0 8.61905H20V9.57143H0V8.61905ZM20 10.5238H0V11.4762H20V10.5238ZM0 12.4286H20V13.381H0V12.4286ZM20 14.3333H0V15.2857H20V14.3333Z" fill="#D02F44"/>
<rect y="1" width="8.57143" height="6.66667" fill="#46467F"/>
<g filter="url(#filter0_d_133_747)">
<path fill-rule="evenodd" clip-rule="evenodd" d="M1.90477 2.42858C1.90477 2.69158 1.69158 2.90477 1.42858 2.90477C1.16559 2.90477 0.952393 2.69158 0.952393 2.42858C0.952393 2.16559 1.16559 1.95239 1.42858 1.95239C1.69158 1.95239 1.90477 2.16559 1.90477 2.42858ZM3.80954 2.42858C3.80954 2.69158 3.59634 2.90477 3.33334 2.90477C3.07035 2.90477 2.85715 2.69158 2.85715 2.42858C2.85715 2.16559 3.07035 1.95239 3.33334 1.95239C3.59634 1.95239 3.80954 2.16559 3.80954 2.42858ZM5.23811 2.90477C5.5011 2.90477 5.7143 2.69158 5.7143 2.42858C5.7143 2.16559 5.5011 1.95239 5.23811 1.95239C4.97511 1.95239 4.76192 2.16559 4.76192 2.42858C4.76192 2.69158 4.97511 2.90477 5.23811 2.90477ZM7.61906 2.42858C7.61906 2.69158 7.40586 2.90477 7.14287 2.90477C6.87988 2.90477 6.66668 2.69158 6.66668 2.42858C6.66668 2.16559 6.87988 1.95239 7.14287 1.95239C7.40586 1.95239 7.61906 2.16559 7.61906 2.42858ZM2.38096 3.85715C2.64396 3.85715 2.85715 3.64396 2.85715 3.38096C2.85715 3.11797 2.64396 2.90477 2.38096 2.90477C2.11797 2.90477 1.90477 3.11797 1.90477 3.38096C1.90477 3.64396 2.11797 3.85715 2.38096 3.85715ZM4.76192 3.38096C4.76192 3.64396 4.54872 3.85715 4.28573 3.85715C4.02273 3.85715 3.80954 3.64396 3.80954 3.38096C3.80954 3.11797 4.02273 2.90477 4.28573 2.90477C4.54872 2.90477 4.76192 3.11797 4.76192 3.38096ZM6.19049 3.85715C6.45348 3.85715 6.66668 3.64396 6.66668 3.38096C6.66668 3.11797 6.45348 2.90477 6.19049 2.90477C5.9275 2.90477 5.7143 3.11797 5.7143 3.38096C5.7143 3.64396 5.9275 3.85715 6.19049 3.85715ZM7.61906 4.33335C7.61906 4.59634 7.40586 4.80954 7.14287 4.80954C6.87988 4.80954 6.66668 4.59634 6.66668 4.33335C6.66668 4.07035 6.87988 3.85715 7.14287 3.85715C7.40586 3.85715 7.61906 4.07035 7.61906 4.33335ZM5.23811 4.80954C5.5011 4.80954 5.7143 4.59634 5.7143 4.33335C5.7143 4.07035 5.5011 3.85715 5.23811 3.85715C4.97511 3.85715 4.76192 4.07035 4.76192 4.33335C4.76192 4.59634 4.97511 4.80954 5.23811 4.80954ZM3.80954 4.33335C3.80954 4.59634 3.59634 4.80954 3.33334 4.80954C3.07035 4.80954 2.85715 4.59634 2.85715 4.33335C2.85715 4.07035 3.07035 3.85715 3.33334 3.85715C3.59634 3.85715 3.80954 4.07035 3.80954 4.33335ZM1.42858 4.80954C1.69158 4.80954 1.90477 4.59634 1.90477 4.33335C1.90477 4.07035 1.69158 3.85715 1.42858 3.85715C1.16559 3.85715 0.952393 4.07035 0.952393 4.33335C0.952393 4.59634 1.16559 4.80954 1.42858 4.80954ZM2.85715 5.28573C2.85715 5.54872 2.64396 5.76192 2.38096 5.76192C2.11797 5.76192 1.90477 5.54872 1.90477 5.28573C1.90477 5.02273 2.11797 4.80954 2.38096 4.80954C2.64396 4.80954 2.85715 5.02273 2.85715 5.28573ZM4.28573 5.76192C4.54872 5.76192 4.76192 5.54872 4.76192 5.28573C4.76192 5.02273 4.54872 4.80954 4.28573 4.80954C4.02273 4.80954 3.80954 5.02273 3.80954 5.28573C3.80954 5.54872 4.02273 5.76192 4.28573 5.76192ZM6.66668 5.28573C6.66668 5.54872 6.45348 5.76192 6.19049 5.76192C5.9275 5.76192 5.7143 5.54872 5.7143 5.28573C5.7143 5.02273 5.9275 4.80954 6.19049 4.80954C6.45348 4.80954 6.66668 5.02273 6.66668 5.28573ZM7.14287 6.7143C7.40586 6.7143 7.61906 6.5011 7.61906 6.23811C7.61906 5.97511 7.40586 5.76192 7.14287 5.76192C6.87988 5.76192 6.66668 5.97511 6.66668 6.23811C6.66668 6.5011 6.87988 6.7143 7.14287 6.7143ZM5.7143 6.23811C5.7143 6.5011 5.5011 6.7143 5.23811 6.7143C4.97511 6.7143 4.76192 6.5011 4.76192 6.23811C4.76192 5.97511 4.97511 5.76192 5.23811 5.76192C5.5011 5.76192 5.7143 5.97511 5.7143 6.23811ZM3.33334 6.7143C3.59634 6.7143 3.80954 6.5011 3.80954 6.23811C3.80954 5.97511 3.59634 5.76192 3.33334 5.76192C3.07035 5.76192 2.85715 5.97511 2.85715 6.23811C2.85715 6.5011 3.07035 6.7143 3.33334 6.7143ZM1.90477 6.23811C1.90477 6.5011 1.69158 6.7143 1.42858 6.7143C1.16559 6.7143 0.952393 6.5011 0.952393 6.23811C0.952393 5.97511 1.16559 5.76192 1.42858 5.76192C1.69158 5.76192 1.90477 5.97511 1.90477 6.23811Z" fill="url(#paint0_linear_133_747)"/>
</g>
</g>
<path d="M31.233 14V3.81818H37.3778V4.91193H32.4659V8.35227H37.0597V9.44602H32.4659V12.9062H37.4574V14H31.233ZM47.674 3.81818V14H46.4808L40.9325 6.00568H40.8331V14H39.6001V3.81818H40.7933L46.3615 11.8324H46.4609V3.81818H47.674ZM57.1014 7C56.992 6.66525 56.8478 6.36529 56.6689 6.10014C56.4932 5.83168 56.2827 5.60298 56.0375 5.41406C55.7955 5.22514 55.5204 5.08097 55.2122 4.98153C54.9039 4.8821 54.5659 4.83239 54.198 4.83239C53.5948 4.83239 53.0462 4.98816 52.5524 5.29972C52.0585 5.61127 51.6658 6.07031 51.3741 6.67685C51.0824 7.28338 50.9366 8.02746 50.9366 8.90909C50.9366 9.79072 51.0841 10.5348 51.3791 11.1413C51.6741 11.7479 52.0734 12.2069 52.5772 12.5185C53.081 12.83 53.6478 12.9858 54.2775 12.9858C54.8609 12.9858 55.3746 12.8615 55.8187 12.6129C56.2662 12.361 56.6142 12.0064 56.8627 11.549C57.1146 11.0883 57.2406 10.5464 57.2406 9.9233L57.6184 10.0028H54.5559V8.90909H58.4338V10.0028C58.4338 10.8414 58.2548 11.5705 57.8968 12.1903C57.5422 12.8101 57.0517 13.2907 56.4252 13.6321C55.8021 13.9702 55.0862 14.1392 54.2775 14.1392C53.376 14.1392 52.5839 13.9271 51.9011 13.5028C51.2217 13.0786 50.6913 12.4754 50.3102 11.6932C49.9324 10.911 49.7434 9.98295 49.7434 8.90909C49.7434 8.10369 49.8511 7.3795 50.0666 6.73651C50.2853 6.0902 50.5936 5.54001 50.9913 5.08594C51.389 4.63187 51.8597 4.28385 52.4032 4.0419C52.9468 3.79995 53.545 3.67898 54.198 3.67898C54.7349 3.67898 55.2354 3.76018 55.6994 3.92258C56.1667 4.08168 56.5827 4.30871 56.9473 4.60369C57.3152 4.89536 57.6217 5.24503 57.867 5.6527C58.1123 6.05705 58.2813 6.50616 58.3741 7H57.1014Z" fill="#443E3E"/>
<defs>
<filter id="filter0_d_133_747" x="0.952393" y="1.95239" width="6.66663" height="5.7619" filterUnits="userSpaceOnUse" color-interpolation-filters="sRGB">
<feFlood flood-opacity="0" result="BackgroundImageFix"/>
<feColorMatrix in="SourceAlpha" type="matrix" values="0 0 0 0 0 0 0 0 0 0 0 0 0 0 0 0 0 0 127 0" result="hardAlpha"/>
<feOffset dy="1"/>
<feColorMatrix type="matrix" values="0 0 0 0 0 0 0 0 0 0 0 0 0 0 0 0 0 0 0.06 0"/>
<feBlend mode="normal" in2="BackgroundImageFix" result="effect1_dropShadow_133_747"/>
<feBlend mode="normal" in="SourceGraphic" in2="effect1_dropShadow_133_747" result="shape"/>
</filter>
<linearGradient id="paint0_linear_133_747" x1="0.952393" y1="1.95239" x2="0.952393" y2="6.7143" gradientUnits="userSpaceOnUse">
<stop stop-color="white"/>
<stop offset="1" stop-color="#F0F0F0"/>
</linearGradient>
</defs>
</svg>
