<svg width="24" height="23" viewBox="0 0 24 23" fill="none" xmlns="http://www.w3.org/2000/svg">
<path d="M1.56372 11.5C1.56372 17.2532 6.2572 21.9167 12.0472 21.9167C17.8373 21.9167 22.5308 17.2532 22.5308 11.5C22.5308 5.74692 17.8373 1.08337 12.0472 1.08337C6.2572 1.08337 1.56372 5.74692 1.56372 11.5Z" stroke="white" stroke-width="1.5" stroke-linecap="round" stroke-linejoin="round"/>
<path d="M2.22424 7.85425H21.8704M13.0957 1.1355C13.0957 1.1355 16.2407 5.25008 16.2407 11.5001C16.2407 17.7501 13.0957 21.8647 13.0957 21.8647V1.1355ZM10.999 21.8647C10.999 21.8647 7.8539 17.7501 7.8539 11.5001C7.8539 5.25008 10.999 1.1355 10.999 1.1355V21.8647ZM2.22424 15.1459H21.8704H2.22424Z" stroke="white" stroke-width="1.5" stroke-linecap="round" stroke-linejoin="round"/>
</svg>
