<svg width="58" height="17" viewBox="0 0 58 17" fill="none" xmlns="http://www.w3.org/2000/svg">
<rect y="1" width="20" height="14.2857" rx="2" fill="white"/>
<mask id="mask0_133_745" style="mask-type:alpha" maskUnits="userSpaceOnUse" x="0" y="1" width="20" height="15">
<rect y="1" width="20" height="14.2857" rx="2" fill="white"/>
</mask>
<g mask="url(#mask0_133_745)">
<rect y="1" width="20" height="14.2857" fill="#F22A46"/>
<path fill-rule="evenodd" clip-rule="evenodd" d="M9.99997 10.5238C11.3149 10.5238 12.3809 9.45782 12.3809 8.14285C12.3809 6.82789 11.3149 5.7619 9.99997 5.7619C8.68501 5.7619 7.61902 6.82789 7.61902 8.14285C7.61902 9.45782 8.68501 10.5238 9.99997 10.5238Z" fill="#FFF04D"/>
<path fill-rule="evenodd" clip-rule="evenodd" d="M8.83447 13.2496L10.0001 11.5097L11.1656 13.2496L11.4609 11.1763L13.266 12.2381L12.6324 10.242L14.7194 10.4156L13.2825 8.89204L15.2382 8.14284L13.2825 7.39364L14.7194 5.87011L12.6324 6.04363L13.266 4.04753L11.4609 5.1094L11.1656 3.03607L10.0001 4.77597L8.83447 3.03607L8.53923 5.1094L6.73416 4.04753L7.36774 6.04363L5.2807 5.87011L6.71761 7.39364L4.76196 8.14284L6.71761 8.89204L5.2807 10.4156L7.36774 10.242L6.73416 12.2381L8.53923 11.1763L8.83447 13.2496ZM13.3334 8.14284C13.3334 9.98379 11.841 11.4762 10.0001 11.4762C8.15911 11.4762 6.66672 9.98379 6.66672 8.14284C6.66672 6.30189 8.15911 4.8095 10.0001 4.8095C11.841 4.8095 13.3334 6.30189 13.3334 8.14284Z" fill="#FFF04D"/>
</g>
<path d="M31.233 14V3.81818H32.4659V8.86932H32.5852L37.1591 3.81818H38.7699L34.4943 8.41193L38.7699 14H37.2784L33.7386 9.26705L32.4659 10.6989V14H31.233ZM46.8475 7C46.7381 6.66525 46.5939 6.36529 46.415 6.10014C46.2393 5.83168 46.0288 5.60298 45.7836 5.41406C45.5416 5.22514 45.2665 5.08097 44.9583 4.98153C44.65 4.8821 44.312 4.83239 43.9441 4.83239C43.3409 4.83239 42.7923 4.98816 42.2985 5.29972C41.8046 5.61127 41.4119 6.07031 41.1202 6.67685C40.8285 7.28338 40.6827 8.02746 40.6827 8.90909C40.6827 9.79072 40.8302 10.5348 41.1252 11.1413C41.4202 11.7479 41.8195 12.2069 42.3233 12.5185C42.8271 12.83 43.3939 12.9858 44.0236 12.9858C44.6069 12.9858 45.1207 12.8615 45.5648 12.6129C46.0123 12.361 46.3603 12.0064 46.6088 11.549C46.8607 11.0883 46.9867 10.5464 46.9867 9.9233L47.3645 10.0028H44.302V8.90909H48.1799V10.0028C48.1799 10.8414 48.0009 11.5705 47.6429 12.1903C47.2883 12.8101 46.7978 13.2907 46.1713 13.6321C45.5482 13.9702 44.8323 14.1392 44.0236 14.1392C43.1221 14.1392 42.33 13.9271 41.6472 13.5028C40.9677 13.0786 40.4374 12.4754 40.0563 11.6932C39.6784 10.911 39.4895 9.98295 39.4895 8.90909C39.4895 8.10369 39.5972 7.3795 39.8127 6.73651C40.0314 6.0902 40.3397 5.54001 40.7374 5.08594C41.1351 4.63187 41.6058 4.28385 42.1493 4.0419C42.6929 3.79995 43.2911 3.67898 43.9441 3.67898C44.481 3.67898 44.9815 3.76018 45.4455 3.92258C45.9128 4.08168 46.3288 4.30871 46.6934 4.60369C47.0613 4.89536 47.3678 5.24503 47.6131 5.6527C47.8584 6.05705 48.0274 6.50616 48.1202 7H46.8475ZM49.9535 14V13.1051L55.4421 4.91193H49.8938V3.81818H56.9137V4.71307L51.4251 12.9062H56.9734V14H49.9535Z" fill="#443E3E"/>
</svg>
