<svg width="26" height="25" viewBox="0 0 26 25" fill="none" xmlns="http://www.w3.org/2000/svg">
<path d="M2.56372 12.5C2.56372 18.2532 7.2572 22.9167 13.0472 22.9167C18.8373 22.9167 23.5308 18.2532 23.5308 12.5C23.5308 6.74692 18.8373 2.08337 13.0472 2.08337C7.2572 2.08337 2.56372 6.74692 2.56372 12.5Z" stroke="white" stroke-width="1.5" stroke-linecap="round" stroke-linejoin="round"/>
<path d="M3.22424 8.85425H22.8704M14.0957 2.1355C14.0957 2.1355 17.2407 6.25008 17.2407 12.5001C17.2407 18.7501 14.0957 22.8647 14.0957 22.8647V2.1355ZM11.999 22.8647C11.999 22.8647 8.8539 18.7501 8.8539 12.5001C8.8539 6.25008 11.999 2.1355 11.999 2.1355V22.8647ZM3.22424 16.1459H22.8704H3.22424Z" stroke="white" stroke-width="1.5" stroke-linecap="round" stroke-linejoin="round"/>
</svg>
