<svg width="112" height="50" viewBox="0 0 112 50" fill="none" xmlns="http://www.w3.org/2000/svg">
<path d="M80.3555 35.7537L80.6428 35.8399L80.7587 35.4537H80.3555V35.7537ZM73.4473 36.2459H73.7473V35.4502L73.2219 36.0478L73.4473 36.2459ZM70.1865 32.1502L70.3675 32.3895L70.3678 32.3892L70.1865 32.1502ZM78.3604 31.1834L78.6425 31.2854L78.7878 30.8834H78.3604V31.1834ZM76.708 35.7537L76.4259 35.6517L76.2805 36.0537H76.708V35.7537ZM74.6865 32.5896L74.9694 32.6894L75.1105 32.2896H74.6865V32.5896ZM72.7441 32.5896V32.2896H72.521L72.4568 32.5033L72.7441 32.5896ZM72.1289 34.6375L71.8415 34.5511L71.8395 34.5585L72.1289 34.6375ZM73.5703 35.7537V36.0537H73.7826L73.8532 35.8535L73.5703 35.7537ZM80.0681 35.6675C79.9448 36.0786 79.7334 36.367 79.4422 36.5572C79.1463 36.7504 78.7407 36.8599 78.2021 36.8599V37.4599C78.8179 37.4599 79.3484 37.3351 79.7702 37.0596C80.1967 36.781 80.4849 36.3663 80.6428 35.8399L80.0681 35.6675ZM78.2021 36.8599H74.8711V37.4599H78.2021V36.8599ZM74.8711 36.8599C74.419 36.8599 74.1314 36.7856 73.9653 36.679C73.8219 36.5869 73.7473 36.4582 73.7473 36.2459H73.1473C73.1473 36.6429 73.3099 36.9712 73.6412 37.1839C73.9496 37.3819 74.374 37.4599 74.8711 37.4599V36.8599ZM73.2219 36.0478C72.6377 36.7124 71.9335 37.0357 71.0918 37.0357V37.6357C72.1134 37.6357 72.9794 37.2325 73.6726 36.4439L73.2219 36.0478ZM71.0918 37.0357C70.473 37.0357 69.9961 36.8479 69.6325 36.4893L69.2112 36.9165C69.7031 37.4017 70.3395 37.6357 71.0918 37.6357V37.0357ZM69.6325 36.4893C69.2697 36.1314 69.0803 35.6615 69.0803 35.0506H68.4803C68.4803 35.799 68.7186 36.4306 69.2112 36.9165L69.6325 36.4893ZM69.0803 35.0506C69.0803 33.9154 69.5086 33.039 70.3675 32.3895L70.0056 31.9109C68.9895 32.6793 68.4803 33.7365 68.4803 35.0506H69.0803ZM70.3678 32.3892C71.1565 31.7909 72.1414 31.4834 73.3418 31.4834V30.8834C72.0343 30.8834 70.9157 31.2204 70.0052 31.9112L70.3678 32.3892ZM73.3418 31.4834H78.3604V30.8834H73.3418V31.4834ZM78.0782 31.0814L76.4259 35.6517L76.9901 35.8557L78.6425 31.2854L78.0782 31.0814ZM76.708 36.0537H80.3555V35.4537H76.708V36.0537ZM74.6865 32.2896H72.7441V32.8896H74.6865V32.2896ZM72.4568 32.5033L71.8416 34.5512L72.4162 34.7238L73.0315 32.6759L72.4568 32.5033ZM71.8395 34.5585C71.7991 34.7067 71.7762 34.8509 71.7762 34.989H72.3762C72.3762 34.9162 72.3884 34.8261 72.4183 34.7164L71.8395 34.5585ZM71.7762 34.989C71.7762 35.1676 71.8206 35.3374 71.9182 35.4873C72.0148 35.6356 72.1524 35.7474 72.313 35.8296C72.6256 35.9896 73.0564 36.0537 73.5703 36.0537V35.4537C73.0881 35.4537 72.7718 35.3904 72.5864 35.2955C72.498 35.2502 72.4488 35.2027 72.4209 35.1598C72.394 35.1186 72.3762 35.0654 72.3762 34.989H71.7762ZM73.8532 35.8535L74.9694 32.6894L74.4036 32.4898L73.2874 35.6539L73.8532 35.8535ZM88.1514 35.7537L88.4392 35.8382L88.5522 35.4537H88.1514V35.7537ZM80.2676 35.7537L80.5493 35.857L80.5505 35.8535L80.2676 35.7537ZM81.3838 32.5896L81.6667 32.6894L81.8077 32.2896H81.3838V32.5896ZM79.9424 32.5896L79.6632 32.4797L79.5018 32.8896H79.9424V32.5896ZM80.4961 31.1834L80.4214 30.8928L80.2731 30.931L80.217 31.0735L80.4961 31.1834ZM82.7812 30.1726L82.5906 29.941L82.5905 29.9411L82.7812 30.1726ZM84.583 27.659V27.359H84.4019L84.3176 27.5192L84.583 27.659ZM86.2969 27.659L86.5799 27.7585L86.7204 27.359H86.2969V27.659ZM85.0576 31.1834L84.7746 31.0839L84.6341 31.4834H85.0576V31.1834ZM87.3252 31.1834L87.6049 31.2918L87.7632 30.8834H87.3252V31.1834ZM84.5303 32.5896V32.2896H84.3169L84.2469 32.4912L84.5303 32.5896ZM83.4316 35.7537L83.1482 35.6553L83.0099 36.0537H83.4316V35.7537ZM87.8635 35.6691C87.7435 36.0776 87.5315 36.3652 87.2338 36.5557C86.9306 36.7498 86.5119 36.8599 85.9541 36.8599V37.4599C86.5858 37.4599 87.128 37.3357 87.5572 37.0611C87.992 36.7828 88.2838 36.3672 88.4392 35.8382L87.8635 35.6691ZM85.9541 36.8599H81.4717V37.4599H85.9541V36.8599ZM81.4717 36.8599C81.064 36.8599 80.8119 36.7867 80.6686 36.686C80.5446 36.5988 80.4709 36.4697 80.4709 36.2459H79.8709C79.8709 36.6314 80.014 36.9593 80.3236 37.1769C80.6139 37.3809 81.0121 37.4599 81.4717 37.4599V36.8599ZM80.4709 36.2459C80.4709 36.1358 80.4942 36.007 80.5492 35.857L79.9859 35.6504C79.912 35.852 79.8709 36.0513 79.8709 36.2459H80.4709ZM80.5505 35.8535L81.6667 32.6894L81.1009 32.4898L79.9847 35.6539L80.5505 35.8535ZM81.3838 32.2896H79.9424V32.8896H81.3838V32.2896ZM80.2215 32.6995L80.7752 31.2933L80.217 31.0735L79.6632 32.4797L80.2215 32.6995ZM80.5708 31.4739C81.6148 31.2055 82.4251 30.8546 82.972 30.4042L82.5905 29.9411C82.1413 30.311 81.4282 30.6339 80.4214 30.8928L80.5708 31.4739ZM82.9719 30.4043C83.5816 29.9025 84.2047 29.0213 84.8485 27.7987L84.3176 27.5192C83.684 28.7224 83.1059 29.5169 82.5906 29.941L82.9719 30.4043ZM84.583 27.959H86.2969V27.359H84.583V27.959ZM86.0139 27.5594L84.7746 31.0839L85.3406 31.2829L86.5799 27.7585L86.0139 27.5594ZM85.0576 31.4834H87.3252V30.8834H85.0576V31.4834ZM87.0455 31.075C86.8834 31.4933 86.6454 31.7898 86.3382 31.9848C86.0287 32.1813 85.6254 32.2896 85.1104 32.2896V32.8896C85.7085 32.8896 86.2311 32.7635 86.6598 32.4913C87.0909 32.2176 87.4037 31.811 87.6049 31.2918L87.0455 31.075ZM85.1104 32.2896H84.5303V32.8896H85.1104V32.2896ZM84.2469 32.4912L83.1482 35.6553L83.715 35.8521L84.8137 32.688L84.2469 32.4912ZM83.4316 36.0537H88.1514V35.4537H83.4316V36.0537ZM99.8232 35.7537L100.114 35.8273L100.209 35.4537H99.8232V35.7537ZM99.0146 36.8611L98.8592 36.6045L98.859 36.6047L99.0146 36.8611ZM93.0029 36.3338H93.3029V35.5024L92.7721 36.1422L93.0029 36.3338ZM88.4941 36.7908L88.6988 36.5715L88.6983 36.571L88.4941 36.7908ZM88.248 35.2351L88.5296 35.3388L88.5299 35.3378L88.248 35.2351ZM89.7246 31.1834V30.8834H89.5146L89.4427 31.0807L89.7246 31.1834ZM92.915 31.1834L93.1973 31.2849L93.3417 30.8834H92.915V31.1834ZM91.2715 35.7537L90.9892 35.6522L90.8448 36.0537H91.2715V35.7537ZM93.0557 35.7537V36.0537H93.267L93.3381 35.8547L93.0557 35.7537ZM94.6904 31.1834V30.8834H94.4791L94.408 31.0823L94.6904 31.1834ZM97.8457 31.1834L98.1289 31.2825L98.2685 30.8834H97.8457V31.1834ZM96.2461 35.7537L95.9629 35.6546L95.8232 36.0537H96.2461V35.7537ZM99.5324 35.6801C99.428 36.0927 99.2055 36.3948 98.8592 36.6045L99.1701 37.1177C99.6558 36.8235 99.9724 36.3874 100.114 35.8273L99.5324 35.6801ZM98.859 36.6047C98.5758 36.7766 98.2807 36.8599 97.9688 36.8599V37.4599C98.395 37.4599 98.7972 37.3441 99.1703 37.1175L98.859 36.6047ZM97.9688 36.8599H94.2949V37.4599H97.9688V36.8599ZM94.2949 36.8599C93.8866 36.8599 93.6318 36.7929 93.4875 36.7006C93.3661 36.623 93.3029 36.5163 93.3029 36.3338H92.7029C92.7029 36.702 92.8551 37.0084 93.1643 37.2061C93.4507 37.3893 93.8419 37.4599 94.2949 37.4599V36.8599ZM92.7721 36.1422C92.3775 36.6176 91.8475 36.8599 91.1484 36.8599V37.4599C92.008 37.4599 92.7143 37.1515 93.2338 36.5253L92.7721 36.1422ZM91.1484 36.8599H89.6016V37.4599H91.1484V36.8599ZM89.6016 36.8599C89.1783 36.8599 88.8912 36.751 88.6988 36.5715L88.2894 37.0101C88.6244 37.3227 89.0756 37.4599 89.6016 37.4599V36.8599ZM88.6983 36.571C88.5208 36.4061 88.425 36.1879 88.425 35.8855H87.825C87.825 36.3332 87.9753 36.7184 88.29 37.0106L88.6983 36.571ZM88.425 35.8855C88.425 35.7141 88.4582 35.5324 88.5296 35.3388L87.9665 35.1314C87.8738 35.3832 87.825 35.6351 87.825 35.8855H88.425ZM88.5299 35.3378L90.0065 31.2861L89.4427 31.0807L87.9662 35.1324L88.5299 35.3378ZM89.7246 31.4834H92.915V30.8834H89.7246V31.4834ZM92.6327 31.0819L90.9892 35.6522L91.5538 35.8552L93.1973 31.2849L92.6327 31.0819ZM91.2715 36.0537H93.0557V35.4537H91.2715V36.0537ZM93.3381 35.8547L94.9729 31.2844L94.408 31.0823L92.7732 35.6526L93.3381 35.8547ZM94.6904 31.4834H97.8457V30.8834H94.6904V31.4834ZM97.5625 31.0843L95.9629 35.6546L96.5293 35.8528L98.1289 31.2825L97.5625 31.0843ZM96.2461 36.0537H99.8232V35.4537H96.2461V36.0537ZM111.46 35.7537L111.751 35.8273L111.845 35.4537H111.46V35.7537ZM110.651 36.8611L110.496 36.6045L110.496 36.6047L110.651 36.8611ZM104.64 36.3338H104.94V35.5024L104.409 36.1422L104.64 36.3338ZM100.131 36.7908L100.336 36.5715L100.335 36.571L100.131 36.7908ZM99.8848 35.2351L100.166 35.3388L100.167 35.3378L99.8848 35.2351ZM101.361 31.1834V30.8834H101.151L101.079 31.0807L101.361 31.1834ZM104.552 31.1834L104.834 31.2849L104.978 30.8834H104.552V31.1834ZM102.908 35.7537L102.626 35.6522L102.482 36.0537H102.908V35.7537ZM104.692 35.7537V36.0537H104.904L104.975 35.8547L104.692 35.7537ZM106.327 31.1834V30.8834H106.116L106.045 31.0823L106.327 31.1834ZM109.482 31.1834L109.766 31.2825L109.905 30.8834H109.482V31.1834ZM107.883 35.7537L107.6 35.6546L107.46 36.0537H107.883V35.7537ZM111.169 35.6801C111.065 36.0927 110.842 36.3948 110.496 36.6045L110.807 37.1177C111.293 36.8235 111.609 36.3874 111.751 35.8273L111.169 35.6801ZM110.496 36.6047C110.213 36.7766 109.917 36.8599 109.605 36.8599V37.4599C110.032 37.4599 110.434 37.3441 110.807 37.1175L110.496 36.6047ZM109.605 36.8599H105.932V37.4599H109.605V36.8599ZM105.932 36.8599C105.523 36.8599 105.269 36.7929 105.124 36.7006C105.003 36.623 104.94 36.5163 104.94 36.3338H104.34C104.34 36.702 104.492 37.0084 104.801 37.2061C105.087 37.3893 105.479 37.4599 105.932 37.4599V36.8599ZM104.409 36.1422C104.014 36.6176 103.484 36.8599 102.785 36.8599V37.4599C103.645 37.4599 104.351 37.1515 104.871 36.5253L104.409 36.1422ZM102.785 36.8599H101.238V37.4599H102.785V36.8599ZM101.238 36.8599C100.815 36.8599 100.528 36.751 100.336 36.5715L99.9262 37.0101C100.261 37.3227 100.712 37.4599 101.238 37.4599V36.8599ZM100.335 36.571C100.158 36.4061 100.062 36.1879 100.062 35.8855H99.4617C99.4617 36.3332 99.612 36.7184 99.9267 37.0106L100.335 36.571ZM100.062 35.8855C100.062 35.7141 100.095 35.5324 100.166 35.3388L99.6033 35.1314C99.5105 35.3832 99.4617 35.6351 99.4617 35.8855H100.062ZM100.167 35.3378L101.643 31.2861L101.079 31.0807L99.6029 35.1324L100.167 35.3378ZM101.361 31.4834H104.552V30.8834H101.361V31.4834ZM104.269 31.0819L102.626 35.6522L103.191 35.8552L104.834 31.2849L104.269 31.0819ZM102.908 36.0537H104.692V35.4537H102.908V36.0537ZM104.975 35.8547L106.61 31.2844L106.045 31.0823L104.41 35.6526L104.975 35.8547ZM106.327 31.4834H109.482V30.8834H106.327V31.4834ZM109.199 31.0843L107.6 35.6546L108.166 35.8528L109.766 31.2825L109.199 31.0843ZM107.883 36.0537H111.46V35.4537H107.883V36.0537Z" fill="white"/>
<path d="M71.749 26.8357C71.749 27.4158 71.5176 27.9109 71.0547 28.3211C70.5977 28.7312 70.0469 28.9363 69.4023 28.9363C68.7578 28.9363 68.207 28.7312 67.75 28.3211C67.293 27.9109 67.0645 27.4158 67.0645 26.8357C67.0645 26.7009 67.0879 26.5252 67.1348 26.3084C66.8711 26.2849 66.7041 26.2732 66.6338 26.2732C65.7432 26.2732 65.2979 26.6453 65.2979 27.3894C65.2979 27.7703 65.5586 28.6228 66.0801 29.947C66.6074 31.2712 66.8711 32.3084 66.8711 33.0584C66.8711 34.6638 65.9834 35.8679 64.208 36.6707C62.8838 37.2625 61.334 37.5584 59.5586 37.5584C57.9355 37.5584 56.4971 37.3328 55.2432 36.8816C53.4795 36.2488 52.5977 35.2761 52.5977 33.9636C52.5977 32.0535 54.2236 31.0984 57.4756 31.0984H60.8242L61.4658 32.5046H58.8555C58.1992 32.5046 57.6279 32.6189 57.1416 32.8474C56.5088 33.1462 56.1924 33.5886 56.1924 34.1746C56.1924 34.8367 56.6289 35.3552 57.502 35.7302C58.1758 36.0173 58.8965 36.1609 59.6641 36.1609C60.6367 36.1609 61.4482 35.947 62.0986 35.5193C62.8545 35.0271 63.2324 34.3211 63.2324 33.4011C63.2324 32.7683 62.9922 31.8601 62.5117 30.6765C62.0312 29.4929 61.791 28.573 61.791 27.9168C61.791 25.7781 63.6104 24.7087 67.249 24.7087H69.4199C70.0176 24.7087 70.5508 24.9109 71.0195 25.3152C71.5059 25.7429 71.749 26.2498 71.749 26.8357Z" fill="white"/>
<path d="M76.715 3.7452C76.4806 2.57604 75.1613 1.79702 72.9981 1.55177C71.5625 1.38932 70.2806 1.25446 69.1456 1.25446C65.93 1.25446 63.7819 2.29692 57.4575 5.66703C56.3406 5.70216 55.2356 5.83388 54.6631 6.02204C54.025 6.22903 54.0856 6.68377 54.7125 7.13162C53.0295 8.02929 51.3432 8.9208 49.6538 9.80613C47.3769 9.12057 43.23 7.86234 41.5331 7.28717C40.0225 6.7766 39.25 8.46135 39.25 8.46135C39.25 8.46135 40.7875 12.2467 41.7106 14.1635C41.5037 14.4006 41.3381 14.6659 41.2625 14.9664C41.125 15.5108 41.1769 16.4197 41.7738 17.1893C42.4769 18.095 43.7 18.5547 45.4106 18.5547C47.2681 18.5547 49.765 18.0091 52.8688 16.939L52.2231 17.9137C51.2413 18.5391 50.2006 19.3683 49.0837 20.4973C48.8881 20.6955 48.5719 21.0913 48.6494 21.5234C48.6831 21.7116 48.8087 21.9744 49.255 22.177C49.2944 22.1883 49.3388 22.1958 49.38 22.2059L49.3419 22.2636C48.5375 23.5644 49.1 24.228 50.5925 23.7394C51.4969 23.4421 52.5981 22.8231 53.5469 22.1212C55.1413 21.8308 57.2413 21.2468 59.9431 20.1347C60.5963 19.8657 60.9075 18.7297 60.6375 17.6032C60.2731 16.0646 59.595 15.8313 59.2213 15.8307L61.1844 13.5005C65.2381 11.6094 69.8906 9.19834 75.1469 6.25475C76.7663 5.34714 76.825 4.29277 76.715 3.7452ZM49.7131 21.7016C49.6249 21.6856 49.5373 21.6662 49.4506 21.6432C49.35 21.5974 49.2263 21.5209 49.2081 21.4212C49.1863 21.2995 49.2981 21.09 49.4869 20.8993C50.0743 20.3013 50.6987 19.7409 51.3563 19.2215L49.7131 21.7016ZM60.0844 17.7343C60.3113 18.6777 60.0194 19.4856 59.7275 19.6054C57.6187 20.4741 55.89 21.0129 54.4887 21.3415C54.7169 21.1308 54.9306 20.9194 55.1037 20.7149L58.6938 16.4548L58.8006 16.4422L59.2175 16.3996C59.5631 16.3996 59.8869 16.8982 60.0844 17.7343ZM74.5925 5.2587C70.1275 7.75822 66.2819 9.77226 62.9638 11.3893L64.5069 9.55837C65.4963 8.38545 65.13 7.95015 63.6931 8.59369L58.1469 11.0763C56.7094 11.7198 56.0456 12.0579 55.2413 13.3581L53.9213 15.3521C49.7994 16.8945 47.1319 17.4144 45.4113 17.4144C42.1437 17.4144 42.2906 15.5403 42.3644 15.2474L51.1569 10.7721C51.4531 10.6209 51.4794 10.3957 51.2156 10.2747C53.7531 8.93992 55.8475 7.81781 57.6106 6.87696C58.3308 6.49264 59.0518 6.11003 59.7738 5.72913C64.6531 3.15874 66.4988 2.39477 69.1462 2.39477C70.1863 2.39477 71.35 2.51269 72.8719 2.68518C75.5469 2.9875 76.545 4.16607 74.5925 5.2587Z" fill="white"/>
<path d="M58.91 16.6323C58.8075 17.003 58.7825 17.4728 58.8588 17.9633C58.975 18.6984 59.2888 19.2736 59.6425 19.4918C59.745 19.1186 59.77 18.6488 59.6913 18.1577C59.5763 17.422 59.2638 16.8487 58.91 16.6323ZM68.3225 4.56687C68.3225 4.56687 68.63 5.05423 69.4875 4.81086C70.23 4.60011 70.9644 3.87754 71.3819 3.08535L70.1613 2.8125C69.905 3.24278 68.3225 4.56687 68.3225 4.56687Z" fill="white"/>
<path d="M51.3444 12.8739C51.6426 12.8739 51.8844 12.6313 51.8844 12.332C51.8844 12.0327 51.6426 11.7901 51.3444 11.7901C51.0461 11.7901 50.8044 12.0327 50.8044 12.332C50.8044 12.6313 51.0461 12.8739 51.3444 12.8739Z" fill="white"/>
<path d="M53.4038 11.8082C53.7023 11.8082 53.9444 11.5653 53.9444 11.2657C53.9444 10.966 53.7023 10.7231 53.4038 10.7231C53.1052 10.7231 52.8631 10.966 52.8631 11.2657C52.8631 11.5653 53.1052 11.8082 53.4038 11.8082Z" fill="white"/>
<path d="M55.4638 10.7426C55.7623 10.7426 56.0044 10.4997 56.0044 10.2C56.0044 9.90038 55.7623 9.65747 55.4638 9.65747C55.1652 9.65747 54.9231 9.90038 54.9231 10.2C54.9231 10.4997 55.1652 10.7426 55.4638 10.7426Z" fill="white"/>
<path d="M57.5237 9.67692C57.8223 9.67692 58.0644 9.43401 58.0644 9.13436C58.0644 8.83472 57.8223 8.59181 57.5237 8.59181C57.2252 8.59181 56.9831 8.83472 56.9831 9.13436C56.9831 9.43401 57.2252 9.67692 57.5237 9.67692Z" fill="white"/>
<path d="M59.5831 8.60937C59.8814 8.60937 60.1231 8.36674 60.1231 8.06744C60.1231 7.76815 59.8814 7.52552 59.5831 7.52552C59.2849 7.52552 59.0431 7.76815 59.0431 8.06744C59.0431 8.36674 59.2849 8.60937 59.5831 8.60937Z" fill="white"/>
<path d="M61.3956 6.52069C61.3314 6.5526 61.2741 6.59704 61.2271 6.65141C61.1801 6.70578 61.1444 6.76899 61.122 6.83736C61.0996 6.90573 61.0911 6.97789 61.0968 7.04963C61.1025 7.12136 61.1224 7.19123 61.1553 7.25517C61.1882 7.3191 61.2335 7.37582 61.2885 7.42201C61.3435 7.4682 61.4071 7.50293 61.4756 7.52418C61.5441 7.54544 61.6161 7.55279 61.6875 7.5458C61.7589 7.53881 61.8281 7.51763 61.8913 7.48349C61.9544 7.451 62.0105 7.40631 62.0564 7.35199C62.1023 7.29766 62.1371 7.23477 62.1587 7.16693C62.1803 7.09909 62.1883 7.02763 62.1823 6.95666C62.1763 6.8857 62.1564 6.81662 62.1238 6.75339C62.0913 6.68999 62.0467 6.63364 61.9925 6.58759C61.9383 6.54154 61.8756 6.5067 61.8079 6.48507C61.7402 6.46345 61.669 6.45546 61.5982 6.46157C61.5275 6.46768 61.4586 6.48778 61.3956 6.52069Z" fill="white"/>
<path d="M63.7025 6.47804C64.0011 6.47804 64.2431 6.23513 64.2431 5.93548C64.2431 5.63584 64.0011 5.39293 63.7025 5.39293C63.4039 5.39293 63.1619 5.63584 63.1619 5.93548C63.1619 6.23513 63.4039 6.47804 63.7025 6.47804Z" fill="white"/>
<path d="M35.1924 31.0984L35.481 31.1804L35.5895 30.7984H35.1924V31.0984ZM34.1816 32.241L34.0548 31.9691L34.0527 31.9701L34.1816 32.241ZM29.3037 32.5046V32.2046H29.161L29.071 32.3153L29.3037 32.5046ZM25.5859 37.075V37.375H25.7286L25.8187 37.2643L25.5859 37.075ZM22.0703 37.075L21.7709 37.0939L21.7887 37.375H22.0703V37.075ZM21.6924 31.0984V30.7984H21.3728L21.393 31.1173L21.6924 31.0984ZM24.8828 31.0984L25.1828 31.0947L25.1792 30.7984H24.8828V31.0984ZM24.9355 35.4226L24.6356 35.4263L24.6462 36.2971L25.1741 35.6045L24.9355 35.4226ZM28.2314 31.0984V30.7984H28.0829L27.9928 30.9165L28.2314 31.0984ZM34.9038 31.0164C34.7833 31.4405 34.5108 31.7563 34.0548 31.9691L34.3085 32.5128C34.9071 32.2335 35.3085 31.7875 35.481 31.1804L34.9038 31.0164ZM34.0527 31.9701C33.7251 32.1261 33.3738 32.2046 32.9951 32.2046V32.8046C33.4602 32.8046 33.8999 32.7074 34.3106 32.5118L34.0527 31.9701ZM32.9951 32.2046H29.3037V32.8046H32.9951V32.2046ZM29.071 32.3153L25.3532 36.8856L25.8187 37.2643L29.5364 32.694L29.071 32.3153ZM25.5859 36.775H22.0703V37.375H25.5859V36.775ZM22.3697 37.056L21.9918 31.0795L21.393 31.1173L21.7709 37.0939L22.3697 37.056ZM21.6924 31.3984H24.8828V30.7984H21.6924V31.3984ZM24.5828 31.1021L24.6356 35.4263L25.2355 35.419L25.1828 31.0947L24.5828 31.1021ZM25.1741 35.6045L28.47 31.2803L27.9928 30.9165L24.697 35.2408L25.1741 35.6045ZM28.2314 31.3984H35.1924V30.7984H28.2314V31.3984ZM36.5547 28.989L36.3543 28.7657L36.3529 28.767L36.5547 28.989ZM33.2588 28.989L33.057 29.211L33.0584 29.2123L33.2588 28.989ZM33.2588 26.0095L33.0584 25.7863L33.057 25.7875L33.2588 26.0095ZM36.5547 26.0095L36.3529 26.2315L36.3543 26.2328L36.5547 26.0095ZM37.873 35.6687L38.1608 35.7537L38.2745 35.3687H37.873V35.6687ZM36.9238 36.8113L37.0598 37.0787L37.0606 37.0783L36.9238 36.8113ZM31.1934 35.3787L31.4757 35.48L31.4759 35.4796L31.1934 35.3787ZM32.7227 31.0984V30.7984H32.5113L32.4401 30.9975L32.7227 31.0984ZM35.9131 31.0984L36.1957 31.199L36.3382 30.7984H35.9131V31.0984ZM34.2871 35.6687L34.0045 35.5682L33.862 35.9687H34.2871V35.6687ZM36.9402 27.4949C36.9402 27.9911 36.7514 28.4094 36.3543 28.7657L36.7551 29.2123C37.272 28.7483 37.5402 28.1705 37.5402 27.4949H36.9402ZM36.3529 28.767C35.9597 29.1244 35.4879 29.3043 34.9199 29.3043V29.9043C35.6293 29.9043 36.2473 29.6739 36.7565 29.211L36.3529 28.767ZM34.9199 29.3043C34.3387 29.3043 33.8577 29.1234 33.4592 28.7657L33.0584 29.2123C33.5739 29.675 34.2003 29.9043 34.9199 29.9043V29.3043ZM33.4606 28.767C33.0691 28.4111 32.882 27.9925 32.882 27.4949H32.282C32.282 28.1692 32.5462 28.7466 33.057 29.211L33.4606 28.767ZM32.882 27.4949C32.882 27.0041 33.0683 26.5881 33.4606 26.2315L33.057 25.7875C32.5469 26.2513 32.282 26.8255 32.282 27.4949H32.882ZM33.4592 26.2328C33.8577 25.8751 34.3387 25.6943 34.9199 25.6943V25.0943C34.2003 25.0943 33.5739 25.3236 33.0584 25.7863L33.4592 26.2328ZM34.9199 25.6943C35.4879 25.6943 35.9597 25.8741 36.3529 26.2315L36.7565 25.7875C36.2473 25.3246 35.6293 25.0943 34.9199 25.0943V25.6943ZM36.3543 26.2328C36.7521 26.5898 36.9402 27.0055 36.9402 27.4949H37.5402C37.5402 26.8241 37.2713 26.2495 36.7551 25.7863L36.3543 26.2328ZM37.5853 35.5837C37.4564 36.0202 37.1948 36.3355 36.7871 36.5443L37.0606 37.0783C37.6138 36.7949 37.985 36.3485 38.1608 35.7537L37.5853 35.5837ZM36.7879 36.5439C36.4861 36.6973 36.1579 36.775 35.7988 36.775V37.375C36.2483 37.375 36.6702 37.2768 37.0598 37.0787L36.7879 36.5439ZM35.7988 36.775H32.3271V37.375H35.7988V36.775ZM32.3271 36.775C31.9429 36.775 31.7106 36.6932 31.5774 36.5815C31.4543 36.4782 31.3703 36.3104 31.3703 36.0203H30.7703C30.7703 36.4332 30.8958 36.7928 31.1917 37.0411C31.4774 37.2809 31.8735 37.375 32.3271 37.375V36.775ZM31.3703 36.0203C31.3703 35.8622 31.4029 35.6829 31.4757 35.48L30.911 35.2773C30.8198 35.5315 30.7703 35.7799 30.7703 36.0203H31.3703ZM31.4759 35.4796L33.0052 31.1993L32.4401 30.9975L30.9108 35.2777L31.4759 35.4796ZM32.7227 31.3984H35.9131V30.7984H32.7227V31.3984ZM35.6304 30.9978L34.0045 35.5682L34.5698 35.7693L36.1957 31.199L35.6304 30.9978ZM34.2871 35.9687H37.873V35.3687H34.2871V35.9687ZM49.2285 35.6687L49.5159 35.7549L49.6317 35.3687H49.2285V35.6687ZM42.3203 36.1609H42.6203V35.3652L42.095 35.9628L42.3203 36.1609ZM39.0596 32.0652L39.2405 32.3045L39.2409 32.3042L39.0596 32.0652ZM47.2334 31.0984L47.5155 31.2004L47.6609 30.7984H47.2334V31.0984ZM45.5811 35.6687L45.2989 35.5667L45.1536 35.9687H45.5811V35.6687ZM43.5596 32.5046L43.8425 32.6045L43.9835 32.2046H43.5596V32.5046ZM41.6172 32.5046V32.2046H41.3941L41.3299 32.4183L41.6172 32.5046ZM41.002 34.5525L40.7145 34.4662L40.7125 34.4736L41.002 34.5525ZM42.4434 35.6687V35.9687H42.6556L42.7263 35.7685L42.4434 35.6687ZM48.9412 35.5825C48.8178 35.9936 48.6065 36.282 48.3152 36.4722C48.0193 36.6655 47.6138 36.775 47.0752 36.775V37.375C47.6909 37.375 48.2214 37.2501 48.6433 36.9746C49.0698 36.696 49.3579 36.2813 49.5159 35.7549L48.9412 35.5825ZM47.0752 36.775H43.7441V37.375H47.0752V36.775ZM43.7441 36.775C43.292 36.775 43.0045 36.7006 42.8383 36.594C42.6949 36.5019 42.6203 36.3733 42.6203 36.1609H42.0203C42.0203 36.5579 42.183 36.8863 42.5142 37.0989C42.8227 37.2969 43.2471 37.375 43.7441 37.375V36.775ZM42.095 35.9628C41.5108 36.6274 40.8065 36.9507 39.9648 36.9507V37.5507C40.9865 37.5507 41.8525 37.1475 42.5456 36.359L42.095 35.9628ZM39.9648 36.9507C39.3461 36.9507 38.8691 36.7629 38.5056 36.4043L38.0843 36.8315C38.5762 37.3167 39.2125 37.5507 39.9648 37.5507V36.9507ZM38.5056 36.4043C38.1427 36.0464 37.9533 35.5765 37.9533 34.9656H37.3533C37.3533 35.714 37.5917 36.3457 38.0843 36.8315L38.5056 36.4043ZM37.9533 34.9656C37.9533 33.8304 38.3816 32.954 39.2405 32.3045L38.8786 31.8259C37.8625 32.5943 37.3533 33.6516 37.3533 34.9656H37.9533ZM39.2409 32.3042C40.0296 31.7059 41.0145 31.3984 42.2148 31.3984V30.7984C40.9074 30.7984 39.7888 31.1354 38.8783 31.8262L39.2409 32.3042ZM42.2148 31.3984H47.2334V30.7984H42.2148V31.3984ZM46.9513 30.9964L45.2989 35.5667L45.8632 35.7707L47.5155 31.2004L46.9513 30.9964ZM45.5811 35.9687H49.2285V35.3687H45.5811V35.9687ZM43.5596 32.2046H41.6172V32.8046H43.5596V32.2046ZM41.3299 32.4183L40.7146 34.4662L41.2893 34.6388L41.9045 32.591L41.3299 32.4183ZM40.7125 34.4736C40.6721 34.6217 40.6492 34.7659 40.6492 34.9041H41.2492C41.2492 34.8312 41.2615 34.7411 41.2914 34.6314L40.7125 34.4736ZM40.6492 34.9041C40.6492 35.0826 40.6936 35.2524 40.7912 35.4023C40.8878 35.5507 41.0254 35.6624 41.1861 35.7446C41.4987 35.9046 41.9295 35.9687 42.4434 35.9687V35.3687C41.9612 35.3687 41.6449 35.3054 41.4594 35.2105C41.371 35.1653 41.3219 35.1177 41.294 35.0749C41.2671 35.0336 41.2492 34.9804 41.2492 34.9041H40.6492ZM42.7263 35.7685L43.8425 32.6045L43.2767 32.4048L42.1604 35.5689L42.7263 35.7685Z" fill="white"/>
<path d="M25.3721 31.0984C25.0732 32.0359 24.3584 32.5046 23.2275 32.5046H18.0068L16.3545 37.075H13.208L14.8604 32.5046H12.1621C9.20898 36.0671 6.32324 37.8484 3.50488 37.8484C2.68457 37.8484 1.99316 37.6961 1.43066 37.3914C0.72168 37.0046 0.367188 36.4363 0.367188 35.6863C0.367188 35.0476 0.630859 34.4236 1.1582 33.8142C2.00781 32.8357 3.29395 32.1121 5.0166 31.6433C6.36426 31.28 7.85254 31.0984 9.48145 31.0984H11.1865L16.5127 24.7087H20.749L18.4814 31.0984H25.3721ZM17.1807 26.1677L13.3311 31.0984H15.291L17.1807 26.1677ZM10 32.5046C7.80273 32.5046 6.26172 32.8211 5.37695 33.4539C4.64453 33.9812 4.27832 34.5408 4.27832 35.1326C4.27832 35.6365 4.54199 35.8884 5.06934 35.8884C5.7959 35.8884 6.7041 35.4783 7.79395 34.658C8.74902 33.949 9.48438 33.2312 10 32.5046Z" fill="white"/>
</svg>
