<svg width="113" height="52" viewBox="0 0 113 52" fill="none" xmlns="http://www.w3.org/2000/svg">
<path d="M80.7922 37.1189L81.0795 37.2051L81.1954 36.8189H80.7922V37.1189ZM73.884 37.6111H74.184V36.8154L73.6586 37.413L73.884 37.6111ZM70.6232 33.5154L70.8042 33.7547L70.8045 33.7544L70.6232 33.5154ZM78.7971 32.5486L79.0792 32.6506L79.2245 32.2486H78.7971V32.5486ZM77.1447 37.1189L76.8626 37.0169L76.7172 37.4189H77.1447V37.1189ZM75.1232 33.9548L75.4061 34.0546L75.5472 33.6548H75.1232V33.9548ZM73.1808 33.9548V33.6548H72.9577L72.8935 33.8685L73.1808 33.9548ZM72.5656 36.0027L72.2782 35.9163L72.2762 35.9237L72.5656 36.0027ZM74.007 37.1189V37.4189H74.2193L74.2899 37.2187L74.007 37.1189ZM80.5048 37.0327C80.3815 37.4438 80.1701 37.7322 79.8789 37.9224C79.583 38.1156 79.1774 38.2251 78.6389 38.2251V38.8251C79.2546 38.8251 79.7851 38.7003 80.2069 38.4248C80.6335 38.1462 80.9216 37.7315 81.0795 37.2051L80.5048 37.0327ZM78.6389 38.2251H75.3078V38.8251H78.6389V38.2251ZM75.3078 38.2251C74.8557 38.2251 74.5681 38.1508 74.402 38.0442C74.2586 37.9521 74.184 37.8234 74.184 37.6111H73.584C73.584 38.0081 73.7467 38.3365 74.0779 38.5491C74.3863 38.7471 74.8107 38.8251 75.3078 38.8251V38.2251ZM73.6586 37.413C73.0744 38.0776 72.3702 38.4009 71.5285 38.4009V39.0009C72.5501 39.0009 73.4162 38.5977 74.1093 37.8091L73.6586 37.413ZM71.5285 38.4009C70.9097 38.4009 70.4328 38.2131 70.0692 37.8545L69.6479 38.2817C70.1398 38.7669 70.7762 39.0009 71.5285 39.0009V38.4009ZM70.0692 37.8545C69.7064 37.4966 69.517 37.0267 69.517 36.4158H68.917C68.917 37.1642 69.1553 37.7959 69.6479 38.2817L70.0692 37.8545ZM69.517 36.4158C69.517 35.2806 69.9453 34.4042 70.8042 33.7547L70.4423 33.2761C69.4262 34.0445 68.917 35.1018 68.917 36.4158H69.517ZM70.8045 33.7544C71.5932 33.1561 72.5781 32.8486 73.7785 32.8486V32.2486C72.4711 32.2486 71.3525 32.5856 70.4419 33.2764L70.8045 33.7544ZM73.7785 32.8486H78.7971V32.2486H73.7785V32.8486ZM78.5149 32.4466L76.8626 37.0169L77.4268 37.2209L79.0792 32.6506L78.5149 32.4466ZM77.1447 37.4189H80.7922V36.8189H77.1447V37.4189ZM75.1232 33.6548H73.1808V34.2548H75.1232V33.6548ZM72.8935 33.8685L72.2783 35.9164L72.8529 36.089L73.4682 34.0412L72.8935 33.8685ZM72.2762 35.9237C72.2358 36.0719 72.2129 36.2161 72.2129 36.3542H72.8129C72.8129 36.2814 72.8251 36.1913 72.855 36.0816L72.2762 35.9237ZM72.2129 36.3542C72.2129 36.5328 72.2573 36.7026 72.3549 36.8525C72.4515 37.0009 72.5891 37.1126 72.7497 37.1948C73.0623 37.3548 73.4931 37.4189 74.007 37.4189V36.8189C73.5248 36.8189 73.2085 36.7556 73.0231 36.6607C72.9347 36.6154 72.8855 36.5679 72.8576 36.525C72.8308 36.4838 72.8129 36.4306 72.8129 36.3542H72.2129ZM74.2899 37.2187L75.4061 34.0546L74.8403 33.855L73.7241 37.0191L74.2899 37.2187ZM88.5881 37.1189L88.8759 37.2034L88.9889 36.8189H88.5881V37.1189ZM80.7043 37.1189L80.986 37.2222L80.9872 37.2187L80.7043 37.1189ZM81.8205 33.9548L82.1034 34.0546L82.2444 33.6548H81.8205V33.9548ZM80.3791 33.9548L80.0999 33.8449L79.9385 34.2548H80.3791V33.9548ZM80.9328 32.5486L80.8581 32.258L80.7098 32.2962L80.6537 32.4387L80.9328 32.5486ZM83.218 31.5378L83.0273 31.3062L83.0272 31.3063L83.218 31.5378ZM85.0197 29.0242V28.7242H84.8386L84.7543 28.8844L85.0197 29.0242ZM86.7336 29.0242L87.0166 29.1237L87.1571 28.7242H86.7336V29.0242ZM85.4943 32.5486L85.2113 32.4491L85.0708 32.8486H85.4943V32.5486ZM87.7619 32.5486L88.0416 32.657L88.1999 32.2486H87.7619V32.5486ZM84.967 33.9548V33.6548H84.7536L84.6836 33.8564L84.967 33.9548ZM83.8683 37.1189L83.5849 37.0205L83.4466 37.4189H83.8683V37.1189ZM88.3002 37.0343C88.1802 37.4429 87.9682 37.7304 87.6705 37.9209C87.3673 38.115 86.9486 38.2251 86.3908 38.2251V38.8251C87.0225 38.8251 87.5647 38.7009 87.9939 38.4263C88.4287 38.148 88.7205 37.7324 88.8759 37.2034L88.3002 37.0343ZM86.3908 38.2251H81.9084V38.8251H86.3908V38.2251ZM81.9084 38.2251C81.5008 38.2251 81.2486 38.1519 81.1053 38.0512C80.9813 37.9641 80.9076 37.835 80.9076 37.6111H80.3076C80.3076 37.9966 80.4507 38.3245 80.7603 38.5421C81.0506 38.7461 81.4488 38.8251 81.9084 38.8251V38.2251ZM80.9076 37.6111C80.9076 37.501 80.9309 37.3722 80.9859 37.2222L80.4226 37.0156C80.3487 37.2172 80.3076 37.4165 80.3076 37.6111H80.9076ZM80.9872 37.2187L82.1034 34.0546L81.5376 33.855L80.4214 37.0191L80.9872 37.2187ZM81.8205 33.6548H80.3791V34.2548H81.8205V33.6548ZM80.6582 34.0647L81.2119 32.6585L80.6537 32.4387L80.0999 33.8449L80.6582 34.0647ZM81.0075 32.8391C82.0515 32.5707 82.8618 32.2198 83.4087 31.7694L83.0272 31.3063C82.578 31.6762 81.8649 31.9991 80.8581 32.258L81.0075 32.8391ZM83.4086 31.7695C84.0183 31.2677 84.6414 30.3865 85.2852 29.1639L84.7543 28.8844C84.1207 30.0876 83.5426 30.8822 83.0273 31.3062L83.4086 31.7695ZM85.0197 29.3242H86.7336V28.7242H85.0197V29.3242ZM86.4506 28.9247L85.2113 32.4491L85.7773 32.6481L87.0166 29.1237L86.4506 28.9247ZM85.4943 32.8486H87.7619V32.2486H85.4943V32.8486ZM87.4822 32.4402C87.3201 32.8585 87.0821 33.155 86.7749 33.35C86.4654 33.5465 86.0622 33.6548 85.5471 33.6548V34.2548C86.1452 34.2548 86.6678 34.1288 87.0965 33.8565C87.5276 33.5828 87.8404 33.1762 88.0416 32.657L87.4822 32.4402ZM85.5471 33.6548H84.967V34.2548H85.5471V33.6548ZM84.6836 33.8564L83.5849 37.0205L84.1517 37.2173L85.2504 34.0532L84.6836 33.8564ZM83.8683 37.4189H88.5881V36.8189H83.8683V37.4189ZM100.26 37.1189L100.551 37.1925L100.645 36.8189H100.26V37.1189ZM99.4514 38.2263L99.2959 37.9697L99.2957 37.9699L99.4514 38.2263ZM93.4396 37.699H93.7396V36.8676L93.2088 37.5074L93.4396 37.699ZM88.9308 38.156L89.1355 37.9367L89.135 37.9362L88.9308 38.156ZM88.6848 36.6003L88.9663 36.7041L88.9666 36.7031L88.6848 36.6003ZM90.1613 32.5486V32.2486H89.9513L89.8794 32.4459L90.1613 32.5486ZM93.3517 32.5486L93.634 32.6501L93.7784 32.2486H93.3517V32.5486ZM91.7082 37.1189L91.4259 37.0174L91.2815 37.4189H91.7082V37.1189ZM93.4924 37.1189V37.4189H93.7037L93.7748 37.2199L93.4924 37.1189ZM95.1271 32.5486V32.2486H94.9158L94.8447 32.4475L95.1271 32.5486ZM98.2824 32.5486L98.5656 32.6477L98.7053 32.2486H98.2824V32.5486ZM96.6828 37.1189L96.3996 37.0198L96.26 37.4189H96.6828V37.1189ZM99.9691 37.0453C99.8647 37.4579 99.6422 37.76 99.2959 37.9697L99.6068 38.4829C100.093 38.1887 100.409 37.7526 100.551 37.1925L99.9691 37.0453ZM99.2957 37.9699C99.0125 38.1418 98.7174 38.2251 98.4055 38.2251V38.8251C98.8318 38.8251 99.234 38.7093 99.607 38.4828L99.2957 37.9699ZM98.4055 38.2251H94.7316V38.8251H98.4055V38.2251ZM94.7316 38.2251C94.3233 38.2251 94.0685 38.1581 93.9243 38.0659C93.8028 37.9882 93.7396 37.8815 93.7396 37.699H93.1396C93.1396 38.0672 93.2918 38.3736 93.601 38.5713C93.8874 38.7545 94.2786 38.8251 94.7316 38.8251V38.2251ZM93.2088 37.5074C92.8142 37.9829 92.2842 38.2251 91.5851 38.2251V38.8251C92.4447 38.8251 93.151 38.5167 93.6705 37.8905L93.2088 37.5074ZM91.5851 38.2251H90.0383V38.8251H91.5851V38.2251ZM90.0383 38.2251C89.615 38.2251 89.3279 38.1163 89.1355 37.9367L88.7262 38.3753C89.0611 38.6879 89.5123 38.8251 90.0383 38.8251V38.2251ZM89.135 37.9362C88.9575 37.7714 88.8617 37.5531 88.8617 37.2507H88.2617C88.2617 37.6984 88.412 38.0836 88.7267 38.3758L89.135 37.9362ZM88.8617 37.2507C88.8617 37.0793 88.8949 36.8976 88.9663 36.7041L88.4032 36.4966C88.3105 36.7484 88.2617 37.0003 88.2617 37.2507H88.8617ZM88.9666 36.7031L90.4432 32.6513L89.8794 32.4459L88.4029 36.4976L88.9666 36.7031ZM90.1613 32.8486H93.3517V32.2486H90.1613V32.8486ZM93.0694 32.4471L91.4259 37.0174L91.9905 37.2204L93.634 32.6501L93.0694 32.4471ZM91.7082 37.4189H93.4924V36.8189H91.7082V37.4189ZM93.7748 37.2199L95.4096 32.6496L94.8447 32.4475L93.2099 37.0179L93.7748 37.2199ZM95.1271 32.8486H98.2824V32.2486H95.1271V32.8486ZM97.9993 32.4495L96.3996 37.0198L96.966 37.218L98.5656 32.6477L97.9993 32.4495ZM96.6828 37.4189H100.26V36.8189H96.6828V37.4189ZM111.897 37.1189L112.188 37.1925L112.282 36.8189H111.897V37.1189ZM111.088 38.2263L110.933 37.9697L110.932 37.9699L111.088 38.2263ZM105.076 37.699H105.376V36.8676L104.845 37.5074L105.076 37.699ZM100.568 38.156L100.772 37.9367L100.772 37.9362L100.568 38.156ZM100.321 36.6003L100.603 36.7041L100.603 36.7031L100.321 36.6003ZM101.798 32.5486V32.2486H101.588L101.516 32.4459L101.798 32.5486ZM104.988 32.5486L105.271 32.6501L105.415 32.2486H104.988V32.5486ZM103.345 37.1189L103.063 37.0174L102.918 37.4189H103.345V37.1189ZM105.129 37.1189V37.4189H105.34L105.412 37.2199L105.129 37.1189ZM106.764 32.5486V32.2486H106.553L106.481 32.4475L106.764 32.5486ZM109.919 32.5486L110.202 32.6477L110.342 32.2486H109.919V32.5486ZM108.32 37.1189L108.036 37.0198L107.897 37.4189H108.32V37.1189ZM111.606 37.0453C111.501 37.4579 111.279 37.76 110.933 37.9697L111.243 38.4829C111.729 38.1887 112.046 37.7526 112.188 37.1925L111.606 37.0453ZM110.932 37.9699C110.649 38.1418 110.354 38.2251 110.042 38.2251V38.8251C110.468 38.8251 110.871 38.7093 111.244 38.4828L110.932 37.9699ZM110.042 38.2251H106.368V38.8251H110.042V38.2251ZM106.368 38.2251C105.96 38.2251 105.705 38.1581 105.561 38.0659C105.44 37.9882 105.376 37.8815 105.376 37.699H104.776C104.776 38.0672 104.928 38.3736 105.238 38.5713C105.524 38.7545 105.915 38.8251 106.368 38.8251V38.2251ZM104.845 37.5074C104.451 37.9829 103.921 38.2251 103.222 38.2251V38.8251C104.081 38.8251 104.788 38.5167 105.307 37.8905L104.845 37.5074ZM103.222 38.2251H101.675V38.8251H103.222V38.2251ZM101.675 38.2251C101.252 38.2251 100.965 38.1163 100.772 37.9367L100.363 38.3753C100.698 38.6879 101.149 38.8251 101.675 38.8251V38.2251ZM100.772 37.9362C100.594 37.7714 100.498 37.5531 100.498 37.2507H99.8984C99.8984 37.6984 100.049 38.0836 100.363 38.3758L100.772 37.9362ZM100.498 37.2507C100.498 37.0793 100.532 36.8976 100.603 36.7041L100.04 36.4966C99.9472 36.7484 99.8984 37.0003 99.8984 37.2507H100.498ZM100.603 36.7031L102.08 32.6513L101.516 32.4459L100.04 36.4976L100.603 36.7031ZM101.798 32.8486H104.988V32.2486H101.798V32.8486ZM104.706 32.4471L103.063 37.0174L103.627 37.2204L105.271 32.6501L104.706 32.4471ZM103.345 37.4189H105.129V36.8189H103.345V37.4189ZM105.412 37.2199L107.046 32.6496L106.481 32.4475L104.847 37.0179L105.412 37.2199ZM106.764 32.8486H109.919V32.2486H106.764V32.8486ZM109.636 32.4495L108.036 37.0198L108.603 37.218L110.202 32.6477L109.636 32.4495ZM108.32 37.4189H111.897V36.8189H108.32V37.4189Z" fill="white"/>
<path d="M72.0765 26.9205C72.0765 27.5006 71.8451 27.9957 71.3822 28.4059C70.9252 28.816 70.3744 29.0211 69.7299 29.0211C69.0853 29.0211 68.5345 28.816 68.0775 28.4059C67.6205 27.9957 67.392 27.5006 67.392 26.9205C67.392 26.7858 67.4154 26.61 67.4623 26.3932C67.1986 26.3698 67.0316 26.358 66.9613 26.358C66.0707 26.358 65.6254 26.7301 65.6254 27.4742C65.6254 27.8551 65.8861 28.7076 66.4076 30.0319C66.9349 31.3561 67.1986 32.3932 67.1986 33.1432C67.1986 34.7487 66.3109 35.9528 64.5355 36.7555C63.2113 37.3473 61.6615 37.6432 59.8861 37.6432C58.2631 37.6432 56.8246 37.4176 55.5707 36.9664C53.807 36.3336 52.9252 35.361 52.9252 34.0485C52.9252 32.1383 54.5511 31.1832 57.8031 31.1832H61.1517L61.7933 32.5895H59.183C58.5267 32.5895 57.9554 32.7037 57.4691 32.9323C56.8363 33.2311 56.5199 33.6735 56.5199 34.2594C56.5199 34.9215 56.9564 35.4401 57.8295 35.8151C58.5033 36.1022 59.224 36.2457 59.9916 36.2457C60.9642 36.2457 61.7758 36.0319 62.4261 35.6041C63.182 35.1119 63.5599 34.4059 63.5599 33.486C63.5599 32.8531 63.3197 31.9449 62.8392 30.7614C62.3588 29.5778 62.1185 28.6578 62.1185 28.0016C62.1185 25.8629 63.9379 24.7936 67.5765 24.7936H69.7474C70.3451 24.7936 70.8783 24.9957 71.347 25.4C71.8334 25.8278 72.0765 26.3346 72.0765 26.9205Z" fill="white"/>
<path d="M77.2012 3.76028C76.9654 2.58642 75.6375 1.80426 73.4605 1.55803C72.0157 1.39492 70.7255 1.25952 69.5833 1.25952C66.347 1.25952 64.1851 2.30618 57.8201 5.68985C56.696 5.72512 55.5839 5.85737 55.0077 6.04629C54.3655 6.25411 54.4265 6.71069 55.0574 7.16033C53.3636 8.06162 51.6665 8.95672 49.9662 9.84561C47.6747 9.15729 43.5012 7.894 41.7934 7.31651C40.2731 6.80389 39.4956 8.49541 39.4956 8.49541C39.4956 8.49541 41.043 12.296 41.9721 14.2205C41.7639 14.4586 41.5972 14.725 41.5211 15.0266C41.3827 15.5732 41.4349 16.4858 42.0356 17.2585C42.7432 18.1678 43.9742 18.6294 45.6958 18.6294C47.5653 18.6294 50.0782 18.0816 53.2018 17.0072L52.5521 17.9858C51.5639 18.6137 50.5166 19.4462 49.3925 20.5798C49.1957 20.7788 48.8774 21.1762 48.9554 21.6101C48.9893 21.799 49.1158 22.0629 49.5649 22.2663C49.6045 22.2776 49.6492 22.2852 49.6907 22.2952L49.6523 22.3532C48.8428 23.6593 49.4089 24.3256 50.911 23.835C51.8212 23.5365 52.9295 22.9149 53.8843 22.2102C55.4889 21.9187 57.6024 21.3324 60.3217 20.2158C60.979 19.9456 61.2922 18.8051 61.0205 17.6741C60.6538 16.1293 59.9713 15.895 59.5951 15.8944L61.5709 13.5549C65.6507 11.6562 70.333 9.23538 75.623 6.27993C77.2528 5.36868 77.312 4.31006 77.2012 3.76028ZM50.026 21.7889C49.9372 21.7729 49.849 21.7534 49.7618 21.7304C49.6605 21.6844 49.536 21.6076 49.5177 21.5074C49.4957 21.3853 49.6083 21.1749 49.7983 20.9835C50.3895 20.383 51.0178 19.8203 51.6796 19.2989L50.026 21.7889ZM60.4638 17.8057C60.6921 18.7529 60.3984 19.564 60.1046 19.6843C57.9824 20.5565 56.2425 21.0975 54.8323 21.4274C55.0618 21.2158 55.277 21.0036 55.4512 20.7983L59.0643 16.521L59.1718 16.5084L59.5914 16.4656C59.9392 16.4656 60.265 16.9663 60.4638 17.8057ZM75.0651 5.27988C70.5714 7.78946 66.7011 9.8116 63.3617 11.4351L64.9147 9.59686C65.9104 8.41921 65.5418 7.98216 64.0957 8.62829L58.5139 11.1209C57.0671 11.767 56.3991 12.1064 55.5896 13.4119L54.2611 15.4139C50.1128 16.9625 47.4281 17.4845 45.6965 17.4845C42.408 17.4845 42.5558 15.6028 42.63 15.3087L51.479 10.8154C51.7771 10.6637 51.8036 10.4376 51.5381 10.316C54.0919 8.97592 56.1997 7.84928 57.9742 6.90465C58.6989 6.51879 59.4246 6.13463 60.1512 5.7522C65.0619 3.17146 66.9194 2.40442 69.5839 2.40442C70.6306 2.40442 71.8018 2.52281 73.3334 2.69599C76.0256 2.99954 77.0302 4.18285 75.0651 5.27988Z" fill="white"/>
<path d="M59.2819 16.6993C59.1787 17.0714 59.1536 17.5431 59.2303 18.0356C59.3473 18.7737 59.6631 19.3512 60.0191 19.5703C60.1223 19.1956 60.1474 18.7239 60.0682 18.2308C59.9524 17.4921 59.6379 16.9165 59.2819 16.6993ZM68.7548 4.58528C68.7548 4.58528 69.0643 5.0746 69.9273 4.83025C70.6746 4.61866 71.4137 3.89318 71.8339 3.0978L70.6054 2.82385C70.3475 3.25586 68.7548 4.58528 68.7548 4.58528Z" fill="white"/>
<path d="M51.6677 12.9257C51.9678 12.9257 52.2112 12.6821 52.2112 12.3816C52.2112 12.0811 51.9678 11.8375 51.6677 11.8375C51.3675 11.8375 51.1242 12.0811 51.1242 12.3816C51.1242 12.6821 51.3675 12.9257 51.6677 12.9257Z" fill="white"/>
<path d="M53.7403 11.8558C54.0408 11.8558 54.2844 11.6119 54.2844 11.3111C54.2844 11.0102 54.0408 10.7664 53.7403 10.7664C53.4398 10.7664 53.1962 11.0102 53.1962 11.3111C53.1962 11.6119 53.4398 11.8558 53.7403 11.8558Z" fill="white"/>
<path d="M55.8135 10.7858C56.114 10.7858 56.3576 10.5419 56.3576 10.241C56.3576 9.94018 56.114 9.69629 55.8135 9.69629C55.513 9.69629 55.2694 9.94018 55.2694 10.241C55.2694 10.5419 55.513 10.7858 55.8135 10.7858Z" fill="white"/>
<path d="M57.8867 9.71582C58.1872 9.71582 58.4308 9.47193 58.4308 9.17108C58.4308 8.87023 58.1872 8.62634 57.8867 8.62634C57.5863 8.62634 57.3427 8.87023 57.3427 9.17108C57.3427 9.47193 57.5863 9.71582 57.8867 9.71582Z" fill="white"/>
<path d="M59.9593 8.644C60.2595 8.644 60.5028 8.4004 60.5028 8.0999C60.5028 7.79939 60.2595 7.55579 59.9593 7.55579C59.6592 7.55579 59.4159 7.79939 59.4159 8.0999C59.4159 8.4004 59.6592 8.644 59.9593 8.644Z" fill="white"/>
<path d="M61.7835 6.54695C61.7188 6.57899 61.6611 6.6236 61.6139 6.67819C61.5666 6.73278 61.5306 6.79625 61.5081 6.8649C61.4856 6.93354 61.477 7.00599 61.4827 7.07802C61.4885 7.15004 61.5085 7.22019 61.5416 7.28439C61.5747 7.34858 61.6203 7.40552 61.6756 7.4519C61.731 7.49827 61.795 7.53315 61.8639 7.55449C61.9329 7.57583 62.0054 7.5832 62.0772 7.57619C62.149 7.56917 62.2188 7.54791 62.2823 7.51363C62.3459 7.48101 62.4024 7.43614 62.4485 7.3816C62.4947 7.32705 62.5297 7.26391 62.5514 7.1958C62.5732 7.12768 62.5813 7.05594 62.5752 6.98468C62.5692 6.91343 62.5492 6.84407 62.5163 6.78059C62.4836 6.71693 62.4388 6.66035 62.3842 6.61412C62.3297 6.56788 62.2665 6.5329 62.1984 6.51119C62.1303 6.48948 62.0586 6.48146 61.9874 6.4876C61.9162 6.49373 61.8469 6.51391 61.7835 6.54695Z" fill="white"/>
<path d="M64.1052 6.50415C64.4057 6.50415 64.6493 6.26026 64.6493 5.95941C64.6493 5.65856 64.4057 5.41467 64.1052 5.41467C63.8047 5.41467 63.5611 5.65856 63.5611 5.95941C63.5611 6.26026 63.8047 6.50415 64.1052 6.50415Z" fill="white"/>
<path d="M35.3272 31.1832L35.6158 31.2652L35.7243 30.8832H35.3272V31.1832ZM34.3165 32.3258L34.1896 32.0539L34.1875 32.0549L34.3165 32.3258ZM29.4386 32.5895V32.2895H29.2959L29.2058 32.4002L29.4386 32.5895ZM25.7208 37.1598V37.4598H25.8635L25.9535 37.3491L25.7208 37.1598ZM22.2052 37.1598L21.9058 37.1787L21.9235 37.4598H22.2052V37.1598ZM21.8272 31.1832V30.8832H21.5077L21.5278 31.2022L21.8272 31.1832ZM25.0177 31.1832L25.3176 31.1796L25.314 30.8832H25.0177V31.1832ZM25.0704 35.5074L24.7704 35.5111L24.781 36.382L25.309 35.6893L25.0704 35.5074ZM28.3663 31.1832V30.8832H28.2178L28.1277 31.0014L28.3663 31.1832ZM35.0387 31.1012C34.9182 31.5253 34.6457 31.8411 34.1896 32.054L34.4434 32.5977C35.042 32.3183 35.4433 31.8724 35.6158 31.2652L35.0387 31.1012ZM34.1875 32.0549C33.86 32.2109 33.5087 32.2895 33.13 32.2895V32.8895C33.595 32.8895 34.0347 32.7923 34.4455 32.5967L34.1875 32.0549ZM33.13 32.2895H29.4386V32.8895H33.13V32.2895ZM29.2058 32.4002L25.4881 36.9705L25.9535 37.3491L29.6713 32.7788L29.2058 32.4002ZM25.7208 36.8598H22.2052V37.4598H25.7208V36.8598ZM22.5046 37.1409L22.1266 31.1643L21.5278 31.2022L21.9058 37.1787L22.5046 37.1409ZM21.8272 31.4832H25.0177V30.8832H21.8272V31.4832ZM24.7177 31.1869L24.7704 35.5111L25.3704 35.5038L25.3176 31.1796L24.7177 31.1869ZM25.309 35.6893L28.6049 31.3651L28.1277 31.0014L24.8318 35.3256L25.309 35.6893ZM28.3663 31.4832H35.3272V30.8832H28.3663V31.4832ZM36.6895 29.0739L36.4892 28.8506L36.4877 28.8519L36.6895 29.0739ZM33.3936 29.0739L33.1918 29.2958L33.1933 29.2971L33.3936 29.0739ZM33.3936 26.0944L33.1933 25.8711L33.1918 25.8724L33.3936 26.0944ZM36.6895 26.0944L36.4877 26.3163L36.4892 26.3176L36.6895 26.0944ZM38.0079 35.7535L38.2956 35.8385L38.4094 35.4535H38.0079V35.7535ZM37.0587 36.8961L37.1947 37.1635L37.1954 37.1631L37.0587 36.8961ZM31.3282 35.4635L31.6106 35.5649L31.6107 35.5644L31.3282 35.4635ZM32.8575 31.1832V30.8832H32.6461L32.575 31.0823L32.8575 31.1832ZM36.0479 31.1832L36.3306 31.2838L36.4731 30.8832H36.0479V31.1832ZM34.422 35.7535L34.1393 35.653L33.9968 36.0535H34.422V35.7535ZM37.0751 27.5797C37.0751 28.0759 36.8863 28.4942 36.4892 28.8506L36.8899 29.2971C37.4069 28.8332 37.6751 28.2554 37.6751 27.5797H37.0751ZM36.4877 28.8519C36.0946 29.2093 35.6227 29.3891 35.0548 29.3891V29.9891C35.7642 29.9891 36.3821 29.7587 36.8913 29.2958L36.4877 28.8519ZM35.0548 29.3891C34.4736 29.3891 33.9925 29.2082 33.594 28.8506L33.1933 29.2971C33.7088 29.7598 34.3352 29.9891 35.0548 29.9891V29.3891ZM33.5954 28.8519C33.2039 28.496 33.0169 28.0773 33.0169 27.5797H32.4169C32.4169 28.254 32.681 28.8314 33.1918 29.2958L33.5954 28.8519ZM33.0169 27.5797C33.0169 27.0889 33.2032 26.6729 33.5954 26.3163L33.1918 25.8724C32.6817 26.3361 32.4169 26.9103 32.4169 27.5797H33.0169ZM33.594 26.3176C33.9925 25.96 34.4736 25.7791 35.0548 25.7791V25.1791C34.3352 25.1791 33.7088 25.4084 33.1933 25.8711L33.594 26.3176ZM35.0548 25.7791C35.6227 25.7791 36.0946 25.9589 36.4877 26.3163L36.8913 25.8724C36.3821 25.4095 35.7642 25.1791 35.0548 25.1791V25.7791ZM36.4892 26.3176C36.887 26.6747 37.0751 27.0903 37.0751 27.5797H37.6751C37.6751 26.909 37.4062 26.3344 36.8899 25.8711L36.4892 26.3176ZM37.7202 35.6685C37.5912 36.105 37.3296 36.4203 36.9219 36.6291L37.1954 37.1631C37.7487 36.8798 38.1199 36.4333 38.2956 35.8385L37.7202 35.6685ZM36.9227 36.6287C36.6209 36.7821 36.2928 36.8598 35.9337 36.8598V37.4598C36.3832 37.4598 36.805 37.3617 37.1947 37.1635L36.9227 36.6287ZM35.9337 36.8598H32.462V37.4598H35.9337V36.8598ZM32.462 36.8598C32.0777 36.8598 31.8454 36.7781 31.7122 36.6663C31.5891 36.563 31.5052 36.3953 31.5052 36.1051H30.9052C30.9052 36.5181 31.0307 36.8777 31.3265 37.1259C31.6123 37.3657 32.0084 37.4598 32.462 37.4598V36.8598ZM31.5052 36.1051C31.5052 35.9471 31.5377 35.7677 31.6106 35.5649L31.0459 35.3621C30.9546 35.6163 30.9052 35.8647 30.9052 36.1051H31.5052ZM31.6107 35.5644L33.14 31.2842L32.575 31.0823L31.0457 35.3626L31.6107 35.5644ZM32.8575 31.4832H36.0479V30.8832H32.8575V31.4832ZM35.7653 31.0827L34.1393 35.653L34.7046 35.8541L36.3306 31.2838L35.7653 31.0827ZM34.422 36.0535H38.0079V35.4535H34.422V36.0535ZM49.3634 35.7535L49.6507 35.8397L49.7666 35.4535H49.3634V35.7535ZM42.4552 36.2457H42.7552V35.45L42.2298 36.0477L42.4552 36.2457ZM39.1944 32.15L39.3754 32.3893L39.3757 32.389L39.1944 32.15ZM47.3683 31.1832L47.6504 31.2852L47.7957 30.8832H47.3683V31.1832ZM45.7159 35.7535L45.4338 35.6515L45.2884 36.0535H45.7159V35.7535ZM43.6944 32.5895L43.9773 32.6893L44.1184 32.2895H43.6944V32.5895ZM41.752 32.5895V32.2895H41.5289L41.4647 32.5032L41.752 32.5895ZM41.1368 34.6373L40.8494 34.551L40.8474 34.5584L41.1368 34.6373ZM42.5782 35.7535V36.0535H42.7905L42.8611 35.8533L42.5782 35.7535ZM49.076 35.6673C48.9527 36.0785 48.7413 36.3668 48.4501 36.557C48.1542 36.7503 47.7486 36.8598 47.2101 36.8598V37.4598C47.8258 37.4598 48.3563 37.3349 48.7781 37.0594C49.2047 36.7809 49.4928 36.3661 49.6507 35.8397L49.076 35.6673ZM47.2101 36.8598H43.879V37.4598H47.2101V36.8598ZM43.879 36.8598C43.4269 36.8598 43.1393 36.7855 42.9732 36.6788C42.8298 36.5868 42.7552 36.4581 42.7552 36.2457H42.1552C42.1552 36.6427 42.3178 36.9711 42.6491 37.1837C42.9575 37.3818 43.3819 37.4598 43.879 37.4598V36.8598ZM42.2298 36.0477C41.6456 36.7123 40.9414 37.0356 40.0997 37.0356V37.6356C41.1213 37.6356 41.9874 37.2323 42.6805 36.4438L42.2298 36.0477ZM40.0997 37.0356C39.4809 37.0356 39.004 36.8477 38.6404 36.4892L38.2191 36.9163C38.711 37.4015 39.3474 37.6356 40.0997 37.6356V37.0356ZM38.6404 36.4892C38.2776 36.1313 38.0882 35.6613 38.0882 35.0504H37.4882C37.4882 35.7989 37.7265 36.4305 38.2191 36.9163L38.6404 36.4892ZM38.0882 35.0504C38.0882 33.9152 38.5165 33.0389 39.3754 32.3893L39.0135 31.9107C37.9974 32.6792 37.4882 33.7364 37.4882 35.0504H38.0882ZM39.3757 32.389C40.1644 31.7907 41.1493 31.4832 42.3497 31.4832V30.8832C41.0422 30.8832 39.9237 31.2203 39.0131 31.911L39.3757 32.389ZM42.3497 31.4832H47.3683V30.8832H42.3497V31.4832ZM47.0861 31.0812L45.4338 35.6515L45.998 35.8555L47.6504 31.2852L47.0861 31.0812ZM45.7159 36.0535H49.3634V35.4535H45.7159V36.0535ZM43.6944 32.2895H41.752V32.8895H43.6944V32.2895ZM41.4647 32.5032L40.8495 34.551L41.4241 34.7236L42.0394 32.6758L41.4647 32.5032ZM40.8474 34.5584C40.807 34.7065 40.7841 34.8508 40.7841 34.9889H41.3841C41.3841 34.9161 41.3963 34.8259 41.4262 34.7163L40.8474 34.5584ZM40.7841 34.9889C40.7841 35.1674 40.8285 35.3373 40.9261 35.4872C41.0227 35.6355 41.1603 35.7472 41.3209 35.8294C41.6335 35.9894 42.0643 36.0535 42.5782 36.0535V35.4535C42.096 35.4535 41.7797 35.3902 41.5943 35.2953C41.5059 35.2501 41.4567 35.2025 41.4288 35.1597C41.402 35.1184 41.3841 35.0652 41.3841 34.9889H40.7841ZM42.8611 35.8533L43.9773 32.6893L43.4115 32.4897L42.2953 35.6537L42.8611 35.8533Z" fill="white"/>
<path d="M25.3721 31.1832C25.0732 32.1207 24.3584 32.5895 23.2275 32.5895H18.0068L16.3545 37.1598H13.208L14.8604 32.5895H12.1621C9.20898 36.152 6.32324 37.9332 3.50488 37.9332C2.68457 37.9332 1.99316 37.7809 1.43066 37.4762C0.72168 37.0895 0.367188 36.5211 0.367188 35.7711C0.367188 35.1324 0.630859 34.5084 1.1582 33.899C2.00781 32.9205 3.29395 32.1969 5.0166 31.7281C6.36426 31.3649 7.85254 31.1832 9.48145 31.1832H11.1865L16.5127 24.7936H20.749L18.4814 31.1832H25.3721ZM17.1807 26.2526L13.3311 31.1832H15.291L17.1807 26.2526ZM10 32.5895C7.80273 32.5895 6.26172 32.9059 5.37695 33.5387C4.64453 34.066 4.27832 34.6256 4.27832 35.2174C4.27832 35.7213 4.54199 35.9733 5.06934 35.9733C5.7959 35.9733 6.7041 35.5631 7.79395 34.7428C8.74902 34.0338 9.48438 33.316 10 32.5895Z" fill="white"/>
</svg>
