<svg width="59" height="17" viewBox="0 0 59 17" fill="none" xmlns="http://www.w3.org/2000/svg">
<rect x="0.25" y="1.25" width="19.5" height="13.7857" rx="1.75" fill="white" stroke="#F5F5F5" stroke-width="0.5"/>
<mask id="mask0_133_746" style="mask-type:alpha" maskUnits="userSpaceOnUse" x="0" y="1" width="20" height="15">
<rect x="0.25" y="1.25" width="19.5" height="13.7857" rx="1.75" fill="white" stroke="white" stroke-width="0.5"/>
</mask>
<g mask="url(#mask0_133_746)">
<path fill-rule="evenodd" clip-rule="evenodd" d="M0 10.5238H20V5.7619H0V10.5238Z" fill="#0C47B7"/>
<path fill-rule="evenodd" clip-rule="evenodd" d="M0 15.2857H20V10.5238H0V15.2857Z" fill="#E53B35"/>
</g>
<path d="M31.233 14V3.81818H34.6733C35.4688 3.81818 36.1217 3.95407 36.6321 4.22585C37.1425 4.49432 37.5204 4.86387 37.7656 5.33452C38.0109 5.80516 38.1335 6.34044 38.1335 6.94034C38.1335 7.54025 38.0109 8.07221 37.7656 8.53622C37.5204 9.00024 37.1442 9.36482 36.6371 9.62997C36.13 9.89181 35.482 10.0227 34.6932 10.0227H31.9091V8.90909H34.6534C35.197 8.90909 35.6345 8.82955 35.9659 8.67045C36.3007 8.51136 36.5426 8.28598 36.6918 7.99432C36.8442 7.69934 36.9205 7.34801 36.9205 6.94034C36.9205 6.53267 36.8442 6.17637 36.6918 5.87145C36.5393 5.56652 36.2957 5.3312 35.9609 5.16548C35.6262 4.99645 35.1837 4.91193 34.6335 4.91193H32.4659V14H31.233ZM36.0256 9.42614L38.5312 14H37.0994L34.6335 9.42614H36.0256ZM46.8699 3.81818H48.1028V10.5597C48.1028 11.2557 47.9387 11.8771 47.6106 12.424C47.2858 12.9676 46.8268 13.3968 46.2335 13.7116C45.6402 14.0232 44.9442 14.179 44.1454 14.179C43.3467 14.179 42.6506 14.0232 42.0574 13.7116C41.4641 13.3968 41.0034 12.9676 40.6752 12.424C40.3504 11.8771 40.188 11.2557 40.188 10.5597V3.81818H41.421V10.4602C41.421 10.9574 41.5304 11.3999 41.7491 11.7876C41.9679 12.1721 42.2794 12.4754 42.6838 12.6974C43.0914 12.9162 43.5787 13.0256 44.1454 13.0256C44.7122 13.0256 45.1994 12.9162 45.6071 12.6974C46.0147 12.4754 46.3263 12.1721 46.5417 11.7876C46.7605 11.3999 46.8699 10.9574 46.8699 10.4602V3.81818ZM56.1332 6.36364C56.0735 5.85985 55.8316 5.46875 55.4073 5.19034C54.9831 4.91193 54.4627 4.77273 53.8462 4.77273C53.3955 4.77273 53.0011 4.84564 52.663 4.99148C52.3282 5.13731 52.0664 5.33783 51.8775 5.59304C51.6919 5.84825 51.5991 6.13826 51.5991 6.46307C51.5991 6.73485 51.6637 6.96851 51.793 7.16406C51.9255 7.3563 52.0946 7.51705 52.3001 7.64631C52.5056 7.77225 52.721 7.87666 52.9464 7.95952C53.1718 8.03906 53.3789 8.10369 53.5678 8.15341L54.6019 8.43182C54.8671 8.50142 55.1621 8.59754 55.4869 8.72017C55.815 8.8428 56.1282 9.01018 56.4265 9.2223C56.7281 9.43111 56.9767 9.69957 57.1722 10.0277C57.3678 10.3558 57.4656 10.7585 57.4656 11.2358C57.4656 11.786 57.3214 12.2831 57.033 12.7273C56.748 13.1714 56.3304 13.5244 55.7802 13.7862C55.2333 14.0481 54.5688 14.179 53.7866 14.179C53.0574 14.179 52.426 14.0613 51.8924 13.826C51.3621 13.5907 50.9445 13.2625 50.6396 12.8416C50.3379 12.4207 50.1673 11.9318 50.1275 11.375H51.4002C51.4334 11.7595 51.5626 12.0777 51.788 12.3295C52.0167 12.5781 52.305 12.7637 52.6531 12.8864C53.0044 13.0057 53.3822 13.0653 53.7866 13.0653C54.2572 13.0653 54.6798 12.9891 55.0543 12.8366C55.4289 12.6809 55.7255 12.4654 55.9442 12.1903C56.163 11.9119 56.2724 11.5871 56.2724 11.2159C56.2724 10.8778 56.1779 10.6027 55.989 10.3906C55.8001 10.1785 55.5515 10.0062 55.2433 9.87358C54.935 9.741 54.6019 9.625 54.244 9.52557L52.9911 9.16761C52.1957 8.93892 51.5659 8.61245 51.1019 8.18821C50.6379 7.76397 50.4059 7.20881 50.4059 6.52273C50.4059 5.95265 50.56 5.45549 50.8683 5.03125C51.1798 4.60369 51.5974 4.27225 52.1211 4.03693C52.6481 3.7983 53.2364 3.67898 53.886 3.67898C54.5423 3.67898 55.1256 3.79664 55.636 4.03196C56.1464 4.26397 56.5508 4.58215 56.8491 4.98651C57.1507 5.39086 57.3098 5.8499 57.3263 6.36364H56.1332Z" fill="#443E3E"/>
</svg>
