<svg width="13" height="13" viewBox="0 0 13 13" fill="none" xmlns="http://www.w3.org/2000/svg">
<path d="M6.5 4.1563C5.8784 4.1563 5.28226 4.40323 4.84272 4.84277C4.40318 5.28231 4.15625 5.87845 4.15625 6.50005C4.15625 7.12165 4.40318 7.7178 4.84272 8.15733C5.28226 8.59687 5.8784 8.8438 6.5 8.8438C7.1216 8.8438 7.71775 8.59687 8.15729 8.15733C8.59682 7.7178 8.84375 7.12165 8.84375 6.50005C8.84375 5.87845 8.59682 5.28231 8.15729 4.84277C7.71775 4.40323 7.1216 4.1563 6.5 4.1563ZM4.9375 6.50005C4.9375 6.08565 5.10212 5.68822 5.39515 5.3952C5.68817 5.10217 6.0856 4.93755 6.5 4.93755C6.9144 4.93755 7.31183 5.10217 7.60486 5.3952C7.89788 5.68822 8.0625 6.08565 8.0625 6.50005C8.0625 6.91445 7.89788 7.31188 7.60486 7.60491C7.31183 7.89793 6.9144 8.06255 6.5 8.06255C6.0856 8.06255 5.68817 7.89793 5.39515 7.60491C5.10212 7.31188 4.9375 6.91445 4.9375 6.50005ZM5.09188 12.5838C5.55407 12.6941 6.02719 12.7497 6.50219 12.7497C6.97616 12.7492 7.44844 12.6932 7.90938 12.5829C8.03056 12.5537 8.1398 12.4879 8.22222 12.3944C8.30464 12.3009 8.35625 12.1842 8.37 12.0604L8.47563 11.1007C8.49348 10.9291 8.572 10.7694 8.69706 10.6506C8.82212 10.5317 8.98551 10.4614 9.15782 10.4522C9.2725 10.4472 9.38657 10.4688 9.49157 10.5147L10.3688 10.8994C10.445 10.9337 10.5276 10.9517 10.6112 10.9523C10.6949 10.9528 10.7777 10.9359 10.8544 10.9026C10.9316 10.8697 11.0006 10.821 11.0575 10.7594C11.7025 10.0642 12.184 9.23366 12.4669 8.32849C12.5039 8.20841 12.5028 8.07979 12.4636 7.9604C12.4244 7.841 12.3491 7.73671 12.2481 7.66193L11.4688 7.08693C11.3759 7.01951 11.3004 6.93107 11.2483 6.82885C11.1962 6.72663 11.169 6.61353 11.169 6.4988C11.169 6.38407 11.1962 6.27098 11.2483 6.16876C11.3004 6.06654 11.3759 5.9781 11.4688 5.91068L12.2456 5.33693C12.3469 5.26201 12.4223 5.15745 12.4615 5.03775C12.5007 4.91804 12.5017 4.7891 12.4644 4.6688C12.1814 3.76351 11.6993 2.93309 11.0534 2.23849C10.9679 2.14703 10.856 2.08438 10.7333 2.05919C10.6106 2.034 10.4831 2.04751 10.3684 2.09787L9.49157 2.48412C9.40094 2.52505 9.30219 2.54662 9.20219 2.54662C9.02219 2.54626 8.84866 2.47948 8.71486 2.35906C8.58107 2.23865 8.49644 2.07308 8.47719 1.89412L8.37094 0.937866C8.35734 0.812359 8.30485 0.694244 8.22079 0.600051C8.13674 0.505857 8.02535 0.4403 7.90219 0.412554C7.44356 0.310166 6.97552 0.255811 6.50563 0.250366C6.03253 0.255827 5.56126 0.310284 5.09938 0.412866C4.97637 0.440455 4.86505 0.505801 4.78101 0.599765C4.69696 0.693729 4.64438 0.811613 4.63063 0.936929L4.52438 1.8938C4.50433 2.07306 4.41888 2.23862 4.28438 2.3588C4.14712 2.47541 3.97411 2.54157 3.79407 2.5463C3.69476 2.54624 3.59655 2.52559 3.50563 2.48568L2.63063 2.09943C2.51556 2.04862 2.38753 2.03493 2.26432 2.06024C2.14111 2.08555 2.02884 2.14862 1.94313 2.24068C1.29815 2.93543 0.816616 3.76556 0.533754 4.67037C0.496387 4.79062 0.497371 4.91951 0.536569 5.03918C0.575766 5.15884 0.651234 5.26334 0.752504 5.33818L1.53 5.91193C1.6689 6.01458 1.76705 6.16301 1.80713 6.331C1.84722 6.499 1.82665 6.67575 1.74907 6.83005C1.69747 6.93237 1.62254 7.02111 1.53032 7.08912L0.752192 7.6638C0.65101 7.73857 0.575594 7.84296 0.536399 7.96251C0.497203 8.08205 0.49617 8.21083 0.533442 8.33099C0.815802 9.23666 1.29737 10.0676 1.94282 10.7629C2.02808 10.8549 2.13993 10.918 2.26278 10.9434C2.38562 10.9689 2.51334 10.9553 2.62813 10.9047L3.50875 10.5182C3.59969 10.4782 3.69782 10.4576 3.79719 10.4576H3.79969C3.97902 10.4578 4.15199 10.524 4.28568 10.6435C4.41937 10.763 4.50444 10.9275 4.52469 11.1057L4.63032 12.061C4.64407 12.185 4.69579 12.3018 4.7784 12.3954C4.861 12.489 4.97048 12.5548 5.09188 12.5838ZM7.61188 11.851C6.88063 12.0072 6.12438 12.0072 5.39313 11.851L5.29813 11.0191C5.25682 10.65 5.08108 10.309 4.80443 10.0611C4.52777 9.8133 4.16956 9.67598 3.79813 9.67537H3.795C3.58785 9.67451 3.38281 9.7171 3.19313 9.80037L2.42875 10.1357C1.9329 9.57641 1.55457 8.92315 1.31625 8.21474L1.99282 7.71474C2.18348 7.57415 2.33845 7.39075 2.44525 7.17931C2.55205 6.96786 2.60769 6.73428 2.60769 6.4974C2.60769 6.26051 2.55205 6.02693 2.44525 5.81549C2.33845 5.60404 2.18348 5.42064 1.99282 5.28005L1.31657 4.78005C1.55533 4.07243 1.93375 3.41995 2.42938 2.8613L3.18938 3.1963C3.37937 3.28057 3.58497 3.3239 3.79282 3.32349H3.79594C4.16826 3.32272 4.52726 3.18493 4.80449 2.93641C5.08172 2.68788 5.25777 2.34601 5.29907 1.97599L5.39282 1.14474C5.75943 1.07128 6.13207 1.03194 6.50594 1.02724C6.87688 1.03193 7.24657 1.07099 7.61032 1.14443L7.70407 1.97537C7.74417 2.34537 7.91942 2.68755 8.19622 2.93632C8.47302 3.1851 8.8319 3.32296 9.20407 3.32349C9.41396 3.32845 9.62214 3.28459 9.81219 3.19537L10.5716 2.86068C11.0675 3.41928 11.446 4.07191 11.6847 4.77974L11.0106 5.27755C10.8186 5.41751 10.6624 5.60086 10.5547 5.81265C10.447 6.02444 10.3908 6.25869 10.3908 6.4963C10.3908 6.73391 10.447 6.96816 10.5547 7.17996C10.6624 7.39175 10.8186 7.5751 11.0106 7.71505L11.6872 8.21505C11.4483 8.92255 11.07 9.57498 10.5747 10.1338L9.81219 9.79943C9.59512 9.70312 9.35835 9.65951 9.1212 9.67215C8.88406 9.68479 8.65327 9.75332 8.44766 9.87216C8.24205 9.99099 8.06745 10.1568 7.93812 10.3559C7.80878 10.5551 7.72837 10.782 7.70344 11.0182L7.61188 11.851Z" fill="#999999"/>
</svg>
