<svg width="75" height="18" viewBox="0 0 75 18" fill="none" xmlns="http://www.w3.org/2000/svg">
<path d="M26.8011 6.36364C26.7415 5.85985 26.4995 5.46875 26.0753 5.19034C25.651 4.91193 25.1307 4.77273 24.5142 4.77273C24.0634 4.77273 23.669 4.84564 23.331 4.99148C22.9962 5.13731 22.7344 5.33783 22.5455 5.59304C22.3598 5.84825 22.267 6.13826 22.267 6.46307C22.267 6.73485 22.3317 6.96851 22.4609 7.16406C22.5935 7.3563 22.7625 7.51705 22.968 7.64631C23.1735 7.77225 23.389 7.87666 23.6143 7.95952C23.8397 8.03906 24.0469 8.10369 24.2358 8.15341L25.2699 8.43182C25.535 8.50142 25.83 8.59754 26.1548 8.72017C26.483 8.8428 26.7962 9.01018 27.0945 9.2223C27.3961 9.43111 27.6446 9.69957 27.8402 10.0277C28.0357 10.3558 28.1335 10.7585 28.1335 11.2358C28.1335 11.786 27.9893 12.2831 27.701 12.7273C27.416 13.1714 26.9983 13.5244 26.4482 13.7862C25.9013 14.0481 25.2367 14.179 24.4545 14.179C23.7254 14.179 23.094 14.0613 22.5604 13.826C22.0301 13.5907 21.6125 13.2625 21.3075 12.8416C21.0059 12.4207 20.8352 11.9318 20.7955 11.375H22.0682C22.1013 11.7595 22.2306 12.0777 22.456 12.3295C22.6847 12.5781 22.973 12.7637 23.321 12.8864C23.6723 13.0057 24.0502 13.0653 24.4545 13.0653C24.9252 13.0653 25.3478 12.9891 25.7223 12.8366C26.0968 12.6809 26.3935 12.4654 26.6122 12.1903C26.831 11.9119 26.9403 11.5871 26.9403 11.2159C26.9403 10.8778 26.8459 10.6027 26.657 10.3906C26.468 10.1785 26.2195 10.0062 25.9112 9.87358C25.603 9.741 25.2699 9.625 24.9119 9.52557L23.6591 9.16761C22.8636 8.93892 22.2339 8.61245 21.7699 8.18821C21.3059 7.76397 21.0739 7.20881 21.0739 6.52273C21.0739 5.95265 21.228 5.45549 21.5362 5.03125C21.8478 4.60369 22.2654 4.27225 22.7891 4.03693C23.3161 3.7983 23.9044 3.67898 24.554 3.67898C25.2102 3.67898 25.7936 3.79664 26.304 4.03196C26.8144 4.26397 27.2188 4.58215 27.517 4.98651C27.8187 5.39086 27.9777 5.8499 27.9943 6.36364H26.8011ZM33.2033 14.1591C32.4675 14.1591 31.8328 13.9967 31.2992 13.6719C30.7689 13.3438 30.3596 12.8864 30.0712 12.2997C29.7862 11.7098 29.6436 11.0237 29.6436 10.2415C29.6436 9.45928 29.7862 8.76989 30.0712 8.1733C30.3596 7.57339 30.7606 7.10606 31.2743 6.77131C31.7914 6.43324 32.3946 6.2642 33.084 6.2642C33.4817 6.2642 33.8745 6.33049 34.2623 6.46307C34.65 6.59564 35.003 6.81108 35.3212 7.10938C35.6394 7.40436 35.8929 7.79545 36.0819 8.28267C36.2708 8.76989 36.3652 9.36979 36.3652 10.0824V10.5795H30.4789V9.56534H35.1721C35.1721 9.13447 35.0859 8.75 34.9135 8.41193C34.7445 8.07386 34.5025 7.80705 34.1877 7.61151C33.8761 7.41596 33.5082 7.31818 33.084 7.31818C32.6167 7.31818 32.2123 7.43419 31.8709 7.66619C31.5328 7.89489 31.2727 8.19318 31.0904 8.56108C30.9081 8.92898 30.8169 9.32339 30.8169 9.74432V10.4205C30.8169 10.9972 30.9164 11.486 31.1152 11.8871C31.3174 12.2848 31.5975 12.5881 31.9554 12.7969C32.3134 13.0024 32.7293 13.1051 33.2033 13.1051C33.5115 13.1051 33.79 13.062 34.0385 12.9759C34.2904 12.8864 34.5075 12.7538 34.6898 12.5781C34.8721 12.3991 35.013 12.1771 35.1124 11.9119L36.2459 12.2301C36.1266 12.6146 35.9261 12.9527 35.6444 13.2443C35.3626 13.5327 35.0146 13.758 34.6003 13.9205C34.186 14.0795 33.7203 14.1591 33.2033 14.1591ZM41.4711 6.36364V7.35795H37.5137V6.36364H41.4711ZM38.6671 4.53409H39.8404V11.8125C39.8404 12.1439 39.8884 12.3925 39.9846 12.5582C40.084 12.7206 40.2099 12.83 40.3624 12.8864C40.5182 12.9394 40.6822 12.9659 40.8546 12.9659C40.9838 12.9659 41.0899 12.9593 41.1728 12.946C41.2556 12.9295 41.3219 12.9162 41.3716 12.9062L41.6103 13.9602C41.5307 13.9901 41.4197 14.0199 41.2772 14.0497C41.1346 14.0829 40.954 14.0994 40.7353 14.0994C40.4038 14.0994 40.079 14.0282 39.7608 13.8857C39.446 13.7431 39.1841 13.526 38.9753 13.2344C38.7698 12.9427 38.6671 12.5748 38.6671 12.1307V4.53409ZM46.557 6.36364V7.35795H42.5996V6.36364H46.557ZM43.753 4.53409H44.9263V11.8125C44.9263 12.1439 44.9744 12.3925 45.0705 12.5582C45.1699 12.7206 45.2959 12.83 45.4483 12.8864C45.6041 12.9394 45.7682 12.9659 45.9405 12.9659C46.0698 12.9659 46.1758 12.9593 46.2587 12.946C46.3416 12.9295 46.4078 12.9162 46.4576 12.9062L46.6962 13.9602C46.6167 13.9901 46.5056 14.0199 46.3631 14.0497C46.2206 14.0829 46.04 14.0994 45.8212 14.0994C45.4898 14.0994 45.165 14.0282 44.8468 13.8857C44.5319 13.7431 44.2701 13.526 44.0613 13.2344C43.8558 12.9427 43.753 12.5748 43.753 12.1307V4.53409ZM48.3219 14V6.36364H49.4952V14H48.3219ZM48.9185 5.09091C48.6898 5.09091 48.4926 5.01302 48.3269 4.85724C48.1645 4.70147 48.0833 4.5142 48.0833 4.29545C48.0833 4.0767 48.1645 3.88944 48.3269 3.73366C48.4926 3.57789 48.6898 3.5 48.9185 3.5C49.1472 3.5 49.3427 3.57789 49.5051 3.73366C49.6709 3.88944 49.7537 4.0767 49.7537 4.29545C49.7537 4.5142 49.6709 4.70147 49.5051 4.85724C49.3427 5.01302 49.1472 5.09091 48.9185 5.09091ZM52.8175 9.40625V14H51.6442V6.36364H52.7777V7.55682H52.8771C53.0561 7.16903 53.3279 6.85748 53.6925 6.62216C54.0571 6.38352 54.5277 6.2642 55.1044 6.2642C55.6214 6.2642 56.0739 6.37027 56.4616 6.58239C56.8494 6.79119 57.151 7.10938 57.3665 7.53693C57.5819 7.96117 57.6896 8.49811 57.6896 9.14773V14H56.5163V9.22727C56.5163 8.62737 56.3606 8.16004 56.049 7.82528C55.7375 7.48722 55.3099 7.31818 54.7663 7.31818C54.3918 7.31818 54.0571 7.39938 53.7621 7.56179C53.4704 7.72419 53.2401 7.96117 53.071 8.27273C52.902 8.58428 52.8175 8.96212 52.8175 9.40625ZM62.916 17.0227C62.3493 17.0227 61.862 16.9498 61.4544 16.804C61.0467 16.6615 60.707 16.4725 60.4352 16.2372C60.1667 16.0052 59.9529 15.7566 59.7939 15.4915L60.7285 14.8352C60.8346 14.9744 60.9688 15.1335 61.1312 15.3125C61.2936 15.4948 61.5157 15.6522 61.7974 15.7848C62.0824 15.9207 62.4553 15.9886 62.916 15.9886C63.5325 15.9886 64.0413 15.8395 64.4423 15.5412C64.8433 15.2429 65.0439 14.7756 65.0439 14.1392V12.5881H64.9444C64.8583 12.7273 64.7356 12.8996 64.5765 13.1051C64.4208 13.3073 64.1954 13.4879 63.9004 13.647C63.6087 13.8028 63.2143 13.8807 62.7172 13.8807C62.1007 13.8807 61.5472 13.7348 61.0566 13.4432C60.5694 13.1515 60.1833 12.7273 59.8983 12.1705C59.6165 11.6136 59.4757 10.9375 59.4757 10.142C59.4757 9.35985 59.6132 8.67874 59.8883 8.09872C60.1634 7.51539 60.5462 7.06463 61.0368 6.74645C61.5273 6.42495 62.094 6.2642 62.737 6.2642C63.2342 6.2642 63.6286 6.34706 63.9203 6.51278C64.2153 6.67519 64.4406 6.8608 64.5964 7.0696C64.7555 7.27509 64.8781 7.44413 64.9643 7.5767H65.0836V6.36364H66.2172V14.2188C66.2172 14.875 66.068 15.4086 65.7697 15.8196C65.4747 16.2339 65.077 16.5372 64.5765 16.7294C64.0794 16.925 63.5259 17.0227 62.916 17.0227ZM62.8762 12.8267C63.3469 12.8267 63.7446 12.719 64.0694 12.5036C64.3942 12.2881 64.6412 11.9782 64.8102 11.5739C64.9792 11.1695 65.0637 10.6856 65.0637 10.1222C65.0637 9.57197 64.9809 9.08641 64.8152 8.66548C64.6494 8.24455 64.4042 7.91477 64.0794 7.67614C63.7546 7.4375 63.3535 7.31818 62.8762 7.31818C62.3791 7.31818 61.9648 7.44413 61.6333 7.69602C61.3052 7.94792 61.0583 8.28598 60.8926 8.71023C60.7302 9.13447 60.649 9.60511 60.649 10.1222C60.649 10.6525 60.7318 11.1214 60.8975 11.5291C61.0666 11.9335 61.3152 12.2517 61.6433 12.4837C61.9747 12.7124 62.3857 12.8267 62.8762 12.8267ZM73.774 8.07386L72.72 8.37216C72.6537 8.1965 72.5559 8.0258 72.4267 7.86009C72.3007 7.69105 72.1284 7.55185 71.9096 7.44247C71.6909 7.3331 71.4108 7.27841 71.0694 7.27841C70.6021 7.27841 70.2127 7.38613 69.9011 7.60156C69.5929 7.81368 69.4387 8.08381 69.4387 8.41193C69.4387 8.7036 69.5448 8.93395 69.7569 9.10298C69.969 9.27202 70.3005 9.41288 70.7512 9.52557L71.8848 9.80398C72.5675 9.9697 73.0763 10.2232 73.411 10.5646C73.7458 10.9027 73.9132 11.3385 73.9132 11.8722C73.9132 12.3097 73.7872 12.7008 73.5353 13.0455C73.2868 13.3902 72.9387 13.6619 72.4913 13.8608C72.0439 14.0597 71.5235 14.1591 70.9302 14.1591C70.1513 14.1591 69.5067 13.9901 68.9963 13.652C68.4859 13.3139 68.1627 12.8201 68.0268 12.1705L69.1404 11.892C69.2465 12.303 69.447 12.6113 69.742 12.8168C70.0403 13.0223 70.4297 13.125 70.9103 13.125C71.4572 13.125 71.8914 13.009 72.2129 12.777C72.5377 12.5417 72.7001 12.2599 72.7001 11.9318C72.7001 11.6667 72.6073 11.4446 72.4217 11.2656C72.2361 11.0833 71.9511 10.9474 71.5666 10.858L70.2939 10.5597C69.5945 10.3939 69.0808 10.1371 68.7527 9.78906C68.4279 9.43774 68.2654 8.99858 68.2654 8.47159C68.2654 8.04072 68.3864 7.65956 68.6284 7.32812C68.8736 6.99669 69.2067 6.73651 69.6277 6.54758C70.0519 6.35866 70.5325 6.2642 71.0694 6.2642C71.8251 6.2642 72.4184 6.42992 72.8493 6.76136C73.2834 7.0928 73.5917 7.5303 73.774 8.07386Z" fill="#443E3E"/>
<path d="M7.5 6.1563C6.8784 6.1563 6.28226 6.40323 5.84272 6.84277C5.40318 7.28231 5.15625 7.87845 5.15625 8.50005C5.15625 9.12165 5.40318 9.7178 5.84272 10.1573C6.28226 10.5969 6.8784 10.8438 7.5 10.8438C8.1216 10.8438 8.71775 10.5969 9.15729 10.1573C9.59682 9.7178 9.84375 9.12165 9.84375 8.50005C9.84375 7.87845 9.59682 7.28231 9.15729 6.84277C8.71775 6.40323 8.1216 6.1563 7.5 6.1563ZM5.9375 8.50005C5.9375 8.08565 6.10212 7.68822 6.39515 7.3952C6.68817 7.10217 7.0856 6.93755 7.5 6.93755C7.9144 6.93755 8.31183 7.10217 8.60486 7.3952C8.89788 7.68822 9.0625 8.08565 9.0625 8.50005C9.0625 8.91445 8.89788 9.31188 8.60486 9.60491C8.31183 9.89793 7.9144 10.0626 7.5 10.0626C7.0856 10.0626 6.68817 9.89793 6.39515 9.60491C6.10212 9.31188 5.9375 8.91445 5.9375 8.50005ZM6.09188 14.5838C6.55407 14.6941 7.02719 14.7497 7.50219 14.7497C7.97616 14.7492 8.44844 14.6932 8.90938 14.5829C9.03056 14.5537 9.1398 14.4879 9.22222 14.3944C9.30464 14.3009 9.35625 14.1842 9.37 14.0604L9.47563 13.1007C9.49348 12.9291 9.572 12.7694 9.69706 12.6506C9.82212 12.5317 9.98551 12.4614 10.1578 12.4522C10.2725 12.4472 10.3866 12.4688 10.4916 12.5147L11.3688 12.8994C11.445 12.9337 11.5276 12.9517 11.6112 12.9523C11.6949 12.9528 11.7777 12.9359 11.8544 12.9026C11.9316 12.8697 12.0006 12.821 12.0575 12.7594C12.7025 12.0642 13.184 11.2337 13.4669 10.3285C13.5039 10.2084 13.5028 10.0798 13.4636 9.9604C13.4244 9.841 13.3491 9.73671 13.2481 9.66193L12.4688 9.08693C12.3759 9.01951 12.3004 8.93107 12.2483 8.82885C12.1962 8.72663 12.169 8.61353 12.169 8.4988C12.169 8.38407 12.1962 8.27098 12.2483 8.16876C12.3004 8.06654 12.3759 7.9781 12.4688 7.91068L13.2456 7.33693C13.3469 7.26201 13.4223 7.15745 13.4615 7.03775C13.5007 6.91804 13.5017 6.7891 13.4644 6.6688C13.1814 5.76351 12.6993 4.93309 12.0534 4.23849C11.9679 4.14703 11.856 4.08438 11.7333 4.05919C11.6106 4.034 11.4831 4.04751 11.3684 4.09787L10.4916 4.48412C10.4009 4.52505 10.3022 4.54662 10.2022 4.54662C10.0222 4.54626 9.84866 4.47948 9.71486 4.35906C9.58107 4.23865 9.49644 4.07308 9.47719 3.89412L9.37094 2.93787C9.35734 2.81236 9.30485 2.69424 9.22079 2.60005C9.13674 2.50586 9.02535 2.4403 8.90219 2.41255C8.44356 2.31017 7.97552 2.25581 7.50563 2.25037C7.03253 2.25583 6.56126 2.31028 6.09938 2.41287C5.97637 2.44045 5.86505 2.5058 5.78101 2.59977C5.69696 2.69373 5.64438 2.81161 5.63063 2.93693L5.52438 3.8938C5.50433 4.07306 5.41888 4.23862 5.28438 4.3588C5.14712 4.47541 4.97411 4.54157 4.79407 4.5463C4.69476 4.54624 4.59655 4.52559 4.50563 4.48568L3.63063 4.09943C3.51556 4.04862 3.38753 4.03493 3.26432 4.06024C3.14111 4.08555 3.02884 4.14862 2.94313 4.24068C2.29815 4.93543 1.81662 5.76556 1.53375 6.67037C1.49639 6.79062 1.49737 6.91951 1.53657 7.03918C1.57577 7.15884 1.65123 7.26334 1.7525 7.33818L2.53 7.91193C2.6689 8.01458 2.76705 8.16301 2.80713 8.331C2.84722 8.499 2.82665 8.67575 2.74907 8.83005C2.69747 8.93237 2.62254 9.02111 2.53032 9.08912L1.75219 9.6638C1.65101 9.73857 1.57559 9.84296 1.5364 9.96251C1.4972 10.0821 1.49617 10.2108 1.53344 10.331C1.8158 11.2367 2.29737 12.0676 2.94282 12.7629C3.02808 12.8549 3.13993 12.918 3.26278 12.9434C3.38562 12.9689 3.51334 12.9553 3.62813 12.9047L4.50875 12.5182C4.59969 12.4782 4.69782 12.4576 4.79719 12.4576H4.79969C4.97902 12.4578 5.15199 12.524 5.28568 12.6435C5.41937 12.763 5.50444 12.9275 5.52469 13.1057L5.63032 14.061C5.64407 14.185 5.69579 14.3018 5.7784 14.3954C5.861 14.489 5.97048 14.5548 6.09188 14.5838ZM8.61188 13.851C7.88063 14.0072 7.12438 14.0072 6.39313 13.851L6.29813 13.0191C6.25682 12.65 6.08108 12.309 5.80443 12.0611C5.52777 11.8133 5.16956 11.676 4.79813 11.6754H4.795C4.58785 11.6745 4.38281 11.7171 4.19313 11.8004L3.42875 12.1357C2.9329 11.5764 2.55457 10.9232 2.31625 10.2147L2.99282 9.71474C3.18348 9.57415 3.33845 9.39075 3.44525 9.17931C3.55205 8.96786 3.60769 8.73428 3.60769 8.4974C3.60769 8.26051 3.55205 8.02693 3.44525 7.81549C3.33845 7.60404 3.18348 7.42064 2.99282 7.28005L2.31657 6.78005C2.55533 6.07243 2.93375 5.41995 3.42938 4.8613L4.18938 5.1963C4.37937 5.28057 4.58497 5.3239 4.79282 5.32349H4.79594C5.16826 5.32272 5.52726 5.18493 5.80449 4.93641C6.08172 4.68788 6.25777 4.34601 6.29907 3.97599L6.39282 3.14474C6.75943 3.07128 7.13207 3.03194 7.50594 3.02724C7.87688 3.03193 8.24657 3.07099 8.61032 3.14443L8.70407 3.97537C8.74417 4.34537 8.91942 4.68755 9.19622 4.93632C9.47302 5.1851 9.8319 5.32296 10.2041 5.32349C10.414 5.32845 10.6221 5.28459 10.8122 5.19537L11.5716 4.86068C12.0675 5.41928 12.446 6.07191 12.6847 6.77974L12.0106 7.27755C11.8186 7.41751 11.6624 7.60086 11.5547 7.81265C11.447 8.02444 11.3908 8.25869 11.3908 8.4963C11.3908 8.73391 11.447 8.96816 11.5547 9.17996C11.6624 9.39175 11.8186 9.5751 12.0106 9.71505L12.6872 10.2151C12.4483 10.9225 12.07 11.575 11.5747 12.1338L10.8122 11.7994C10.5951 11.7031 10.3583 11.6595 10.1212 11.6722C9.88406 11.6848 9.65327 11.7533 9.44766 11.8722C9.24205 11.991 9.06745 12.1568 8.93812 12.3559C8.80878 12.5551 8.72837 12.782 8.70344 13.0182L8.61188 13.851Z" fill="#999999"/>
</svg>
