<svg width="61" height="17" viewBox="0 0 61 17" fill="none" xmlns="http://www.w3.org/2000/svg">
<path d="M20.6761 4.91193V3.81818H28.3125V4.91193H25.1108V14H23.8778V4.91193H20.6761ZM30.0563 14V6.36364H31.2296V14H30.0563ZM30.6529 5.09091C30.4242 5.09091 30.227 5.01302 30.0613 4.85724C29.8989 4.70147 29.8176 4.5142 29.8176 4.29545C29.8176 4.0767 29.8989 3.88944 30.0613 3.73366C30.227 3.57789 30.4242 3.5 30.6529 3.5C30.8816 3.5 31.0771 3.57789 31.2395 3.73366C31.4052 3.88944 31.4881 4.0767 31.4881 4.29545C31.4881 4.5142 31.4052 4.70147 31.2395 4.85724C31.0771 5.01302 30.8816 5.09091 30.6529 5.09091ZM36.4808 14.1591C35.7649 14.1591 35.1484 13.9901 34.6314 13.652C34.1143 13.3139 33.7166 12.8482 33.4382 12.255C33.1598 11.6617 33.0206 10.9839 33.0206 10.2216C33.0206 9.44602 33.1631 8.7616 33.4482 8.16832C33.7365 7.57173 34.1375 7.10606 34.6513 6.77131C35.1683 6.43324 35.7715 6.2642 36.4609 6.2642C36.9979 6.2642 37.4818 6.36364 37.9126 6.5625C38.3435 6.76136 38.6965 7.03977 38.9716 7.39773C39.2467 7.75568 39.4174 8.1733 39.4837 8.65057H38.3104C38.2209 8.30256 38.022 7.99432 37.7138 7.72585C37.4089 7.45407 36.9979 7.31818 36.4808 7.31818C36.0234 7.31818 35.6224 7.4375 35.2777 7.67614C34.9363 7.91146 34.6695 8.24455 34.4773 8.67543C34.2884 9.10298 34.1939 9.60511 34.1939 10.1818C34.1939 10.7718 34.2867 11.2855 34.4723 11.723C34.6612 12.1605 34.9264 12.5002 35.2678 12.7422C35.6125 12.9841 36.0168 13.1051 36.4808 13.1051C36.7857 13.1051 37.0625 13.0521 37.3111 12.946C37.5597 12.84 37.7701 12.6875 37.9425 12.4886C38.1148 12.2898 38.2375 12.0511 38.3104 11.7727H39.4837C39.4174 12.2235 39.2533 12.6295 38.9915 12.9908C38.733 13.3487 38.3899 13.6338 37.9624 13.8459C37.5381 14.0547 37.0443 14.1591 36.4808 14.1591ZM42.2926 11.2159L42.2727 9.7642H42.5114L45.8523 6.36364H47.304L43.7443 9.96307H43.6449L42.2926 11.2159ZM41.1989 14V3.81818H42.3722V14H41.1989ZM46.0511 14L43.0682 10.2216L43.9034 9.40625L47.5426 14H46.0511ZM51.7013 14.1591C50.9656 14.1591 50.3308 13.9967 49.7972 13.6719C49.2669 13.3438 48.8576 12.8864 48.5692 12.2997C48.2842 11.7098 48.1417 11.0237 48.1417 10.2415C48.1417 9.45928 48.2842 8.76989 48.5692 8.1733C48.8576 7.57339 49.2586 7.10606 49.7724 6.77131C50.2894 6.43324 50.8926 6.2642 51.582 6.2642C51.9798 6.2642 52.3725 6.33049 52.7603 6.46307C53.1481 6.59564 53.5011 6.81108 53.8192 7.10938C54.1374 7.40436 54.391 7.79545 54.5799 8.28267C54.7688 8.76989 54.8633 9.36979 54.8633 10.0824V10.5795H48.9769V9.56534H53.6701C53.6701 9.13447 53.5839 8.75 53.4116 8.41193C53.2425 8.07386 53.0006 7.80705 52.6857 7.61151C52.3742 7.41596 52.0063 7.31818 51.582 7.31818C51.1147 7.31818 50.7103 7.43419 50.369 7.66619C50.0309 7.89489 49.7707 8.19318 49.5884 8.56108C49.4061 8.92898 49.315 9.32339 49.315 9.74432V10.4205C49.315 10.9972 49.4144 11.486 49.6133 11.8871C49.8155 12.2848 50.0955 12.5881 50.4535 12.7969C50.8114 13.0024 51.2274 13.1051 51.7013 13.1051C52.0096 13.1051 52.288 13.062 52.5366 12.9759C52.7885 12.8864 53.0056 12.7538 53.1879 12.5781C53.3701 12.3991 53.511 12.1771 53.6104 11.9119L54.744 12.2301C54.6246 12.6146 54.4241 12.9527 54.1424 13.2443C53.8607 13.5327 53.5127 13.758 53.0984 13.9205C52.6841 14.0795 52.2184 14.1591 51.7013 14.1591ZM59.9691 6.36364V7.35795H56.0117V6.36364H59.9691ZM57.1651 4.53409H58.3384V11.8125C58.3384 12.1439 58.3865 12.3925 58.4826 12.5582C58.582 12.7206 58.708 12.83 58.8604 12.8864C59.0162 12.9394 59.1803 12.9659 59.3526 12.9659C59.4819 12.9659 59.588 12.9593 59.6708 12.946C59.7537 12.9295 59.82 12.9162 59.8697 12.9062L60.1083 13.9602C60.0288 13.9901 59.9177 14.0199 59.7752 14.0497C59.6327 14.0829 59.4521 14.0994 59.2333 14.0994C58.9019 14.0994 58.5771 14.0282 58.2589 13.8857C57.944 13.7431 57.6822 13.526 57.4734 13.2344C57.2679 12.9427 57.1651 12.5748 57.1651 12.1307V4.53409Z" fill="#443E3E"/>
<path d="M1.73438 10.1055C1.57567 10.139 1.43325 10.2259 1.33089 10.3517C1.22852 10.4775 1.1724 10.6347 1.17188 10.7969V12.25C1.17188 12.4365 1.24595 12.6153 1.37782 12.7472C1.50968 12.879 1.68852 12.9531 1.875 12.9531L13.125 12.9531C13.3115 12.9531 13.4903 12.879 13.6222 12.7472C13.754 12.6153 13.8281 12.4365 13.8281 12.25V10.7969C13.8276 10.6347 13.7715 10.4775 13.6691 10.3517C13.5667 10.2259 13.4243 10.139 13.2656 10.1055C12.8972 10.028 12.5667 9.8261 12.3295 9.53378C12.0923 9.24146 11.9628 8.87646 11.9628 8.5C11.9628 8.12354 12.0923 7.75854 12.3295 7.46622C12.5667 7.1739 12.8972 6.97205 13.2656 6.89453C13.4243 6.86102 13.5667 6.7741 13.6691 6.64828C13.7715 6.52245 13.8276 6.36533 13.8281 6.20312L13.8281 4.75C13.8281 4.56352 13.754 4.38468 13.6222 4.25282C13.4903 4.12095 13.3115 4.04688 13.125 4.04688L1.875 4.04687C1.68852 4.04687 1.50968 4.12095 1.37782 4.25282C1.24595 4.38468 1.17188 4.56352 1.17188 4.75L1.17188 6.20312C1.1724 6.36533 1.22852 6.52245 1.33089 6.64828C1.43325 6.7741 1.57567 6.86102 1.73438 6.89453C2.10277 6.97205 2.43329 7.1739 2.6705 7.46622C2.90772 7.75854 3.03718 8.12354 3.03718 8.5C3.03718 8.87646 2.90772 9.24146 2.6705 9.53378C2.43329 9.8261 2.10277 10.028 1.73438 10.1055ZM13.3594 4.75L13.3594 6.20312C13.3591 6.25695 13.3403 6.30905 13.3062 6.35067C13.272 6.39228 13.2246 6.42088 13.1719 6.43164C12.6938 6.52733 12.2636 6.78569 11.9545 7.16278C11.6454 7.53988 11.4764 8.01241 11.4764 8.5C11.4764 8.98759 11.6454 9.46012 11.9545 9.83722C12.2636 10.2143 12.6938 10.4727 13.1719 10.5684C13.2246 10.5791 13.272 10.6077 13.3062 10.6493C13.3403 10.6909 13.3591 10.743 13.3594 10.7969V12.25C13.3594 12.3122 13.3347 12.3718 13.2907 12.4157C13.2468 12.4597 13.1872 12.4844 13.125 12.4844H9.60938V4.51562H13.125C13.1872 4.51562 13.2468 4.54032 13.2907 4.58427C13.3347 4.62823 13.3594 4.68784 13.3594 4.75ZM3.51562 8.5C3.51489 8.01381 3.3467 7.54272 3.03935 7.16601C2.73201 6.78929 2.30427 6.52995 1.82812 6.43164C1.77538 6.42088 1.72795 6.39228 1.69381 6.35067C1.65966 6.30905 1.64088 6.25695 1.64062 6.20312L1.64063 4.75C1.64063 4.68784 1.66532 4.62823 1.70927 4.58427C1.75323 4.54032 1.81284 4.51562 1.875 4.51562L9.14062 4.51562V12.4844L1.875 12.4844C1.81284 12.4844 1.75323 12.4597 1.70927 12.4157C1.66532 12.3718 1.64062 12.3122 1.64062 12.25V10.7969C1.64088 10.743 1.65966 10.6909 1.69381 10.6493C1.72795 10.6077 1.77538 10.5791 1.82812 10.5684C2.30427 10.47 2.73201 10.2107 3.03935 9.83399C3.3467 9.45728 3.51489 8.98619 3.51562 8.5Z" fill="#909090"/>
</svg>
