<svg width="13" height="9" viewBox="0 0 13 9" fill="none" xmlns="http://www.w3.org/2000/svg">
<path d="M0.734375 6.10547C0.57567 6.13898 0.433253 6.2259 0.330888 6.35173C0.228522 6.47755 0.172397 6.63467 0.171875 6.79687V8.25C0.171875 8.43648 0.245955 8.61532 0.377816 8.74718C0.509678 8.87905 0.688519 8.95312 0.875 8.95312L12.125 8.95312C12.3115 8.95312 12.4903 8.87905 12.6222 8.74718C12.754 8.61532 12.8281 8.43648 12.8281 8.25V6.79687C12.8276 6.63467 12.7715 6.47755 12.6691 6.35173C12.5667 6.2259 12.4243 6.13898 12.2656 6.10547C11.8972 6.02795 11.5667 5.8261 11.3295 5.53378C11.0923 5.24146 10.9628 4.87646 10.9628 4.5C10.9628 4.12354 11.0923 3.75854 11.3295 3.46622C11.5667 3.1739 11.8972 2.97205 12.2656 2.89453C12.4243 2.86102 12.5667 2.7741 12.6691 2.64828C12.7715 2.52245 12.8276 2.36533 12.8281 2.20312L12.8281 0.75C12.8281 0.563519 12.754 0.384678 12.6222 0.252816C12.4903 0.120955 12.3115 0.046875 12.125 0.046875L0.875 0.046875C0.688519 0.046875 0.509678 0.120955 0.377816 0.252816C0.245955 0.384678 0.171875 0.563519 0.171875 0.75L0.171875 2.20312C0.172397 2.36533 0.228522 2.52245 0.330888 2.64828C0.433253 2.7741 0.57567 2.86102 0.734375 2.89453C1.10277 2.97205 1.43329 3.1739 1.6705 3.46622C1.90772 3.75854 2.03718 4.12354 2.03718 4.5C2.03718 4.87646 1.90772 5.24146 1.6705 5.53378C1.43329 5.8261 1.10277 6.02795 0.734375 6.10547ZM12.3594 0.75L12.3594 2.20312C12.3591 2.25695 12.3403 2.30905 12.3062 2.35067C12.272 2.39228 12.2246 2.42088 12.1719 2.43164C11.6938 2.52733 11.2636 2.78569 10.9545 3.16278C10.6454 3.53988 10.4764 4.01241 10.4764 4.5C10.4764 4.98759 10.6454 5.46012 10.9545 5.83722C11.2636 6.21431 11.6938 6.47267 12.1719 6.56836C12.2246 6.57912 12.272 6.60772 12.3062 6.64933C12.3403 6.69095 12.3591 6.74305 12.3594 6.79687V8.25C12.3594 8.31216 12.3347 8.37177 12.2907 8.41573C12.2468 8.45968 12.1872 8.48438 12.125 8.48438H8.60938V0.515625H12.125C12.1872 0.515625 12.2468 0.540318 12.2907 0.584271C12.3347 0.628225 12.3594 0.68784 12.3594 0.75ZM2.51562 4.5C2.51489 4.01381 2.3467 3.54272 2.03935 3.16601C1.73201 2.78929 1.30427 2.52995 0.828125 2.43164C0.775382 2.42088 0.727953 2.39228 0.693808 2.35067C0.659662 2.30905 0.640883 2.25695 0.640625 2.20312L0.640625 0.75C0.640625 0.68784 0.665318 0.628225 0.709271 0.584271C0.753225 0.540318 0.81284 0.515625 0.875 0.515625L8.14062 0.515625V8.48438L0.875 8.48437C0.81284 8.48437 0.753225 8.45968 0.709271 8.41573C0.665318 8.37177 0.640625 8.31216 0.640625 8.25V6.79687C0.640883 6.74305 0.659662 6.69095 0.693808 6.64933C0.727953 6.60772 0.775382 6.57912 0.828125 6.56836C1.30427 6.47005 1.73201 6.21071 2.03935 5.83399C2.3467 5.45728 2.51489 4.98619 2.51562 4.5Z" fill="#909090"/>
</svg>
