<svg width="93" height="26" viewBox="0 0 93 26" fill="none" xmlns="http://www.w3.org/2000/svg">
<g clip-path="url(#clip0_329_293)">
<path d="M25.7863 12.5397C25.7863 5.646 20.1503 0.0522461 13.206 0.0522461C6.26169 0.0522461 0.625732 5.646 0.625732 12.5397C0.625732 16.3366 2.36181 19.7585 5.07914 22.0554C5.10431 22.0804 5.12947 22.0804 5.12947 22.1054C5.35591 22.2804 5.58236 22.4554 5.83396 22.6304C5.95976 22.7054 6.06041 22.8038 6.18621 22.9038C8.2652 24.3044 10.7194 25.0528 13.2312 25.0522C15.7429 25.0528 18.1971 24.3044 20.2761 22.9038C20.4019 22.8288 20.5025 22.7304 20.6283 22.6538C20.8548 22.4804 21.1064 22.3054 21.3328 22.1304C21.358 22.1054 21.3832 22.1054 21.3832 22.0804C24.0502 19.7569 25.7863 16.3366 25.7863 12.5397V12.5397ZM13.206 23.4788C10.8409 23.4788 8.6771 22.7288 6.8907 21.4804C6.91586 21.2804 6.96618 21.0819 7.01651 20.8819C7.16643 20.3399 7.38631 19.8194 7.67068 19.3335C7.94744 18.8585 8.27453 18.4335 8.6771 18.0585C9.05451 17.6835 9.5074 17.3351 9.96029 17.0601C10.4383 16.7851 10.9415 16.5851 11.4951 16.4351C12.0529 16.2857 12.6282 16.2105 13.206 16.2116C14.9211 16.1996 16.5731 16.8532 17.8104 18.0335C18.3891 18.6085 18.842 19.2835 19.169 20.0569C19.3452 20.5069 19.471 20.9819 19.5464 21.4804C17.6896 22.7775 15.4758 23.4752 13.206 23.4788ZM9.35643 11.9163C9.13474 11.412 9.02326 10.8666 9.02935 10.3163C9.02935 9.76787 9.12999 9.21787 9.35643 8.71787C9.58288 8.21787 9.8848 7.76943 10.2622 7.39443C10.6396 7.01943 11.0925 6.721 11.5957 6.496C12.0989 6.271 12.6525 6.171 13.206 6.171C13.7847 6.171 14.3131 6.271 14.8163 6.496C15.3195 6.721 15.7724 7.021 16.1498 7.39443C16.5272 7.76943 16.8291 8.21943 17.0556 8.71787C17.282 9.21787 17.3826 9.76787 17.3826 10.3163C17.3826 10.8913 17.282 11.4163 17.0556 11.9147C16.837 12.4073 16.5301 12.8563 16.1498 13.2397C15.7638 13.6171 15.3119 13.9215 14.8163 14.1382C13.7766 14.5627 12.6103 14.5627 11.5706 14.1382C11.0749 13.9215 10.6231 13.6171 10.2371 13.2397C9.85621 12.8619 9.55661 12.4111 9.35643 11.9147V11.9163ZM21.0309 20.2069C21.0309 20.1569 21.0058 20.1319 21.0058 20.0819C20.7583 19.2998 20.3936 18.5592 19.9239 17.8851C19.4537 17.206 18.8759 16.6071 18.2129 16.1116C17.7066 15.7331 17.1578 15.4143 16.5775 15.1616C16.8415 14.9886 17.0861 14.7879 17.3072 14.5632C17.6823 14.1952 18.0117 13.784 18.2884 13.3382C18.8457 12.4285 19.1334 11.3811 19.1187 10.3163C19.1265 9.52805 18.9724 8.7465 18.6658 8.01943C18.3631 7.31887 17.9275 6.6828 17.3826 6.146C16.8386 5.61479 16.1983 5.19067 15.4956 4.896C14.7627 4.59192 13.9751 4.43934 13.1808 4.44756C12.3865 4.43984 11.5989 4.59295 10.8661 4.89756C10.1573 5.1916 9.51543 5.62472 8.97903 6.171C8.44443 6.71097 8.01757 7.34665 7.721 8.04443C7.41443 8.7715 7.26033 9.55305 7.26811 10.3413C7.26811 10.8913 7.34359 11.4163 7.49456 11.9147C7.64552 12.4397 7.8468 12.9147 8.12357 13.3632C8.37517 13.8132 8.72742 14.2132 9.10483 14.5882C9.33127 14.8132 9.58288 15.0116 9.85964 15.1866C9.27755 15.4461 8.72855 15.7734 8.22421 16.1616C7.57004 16.6616 6.99134 17.2601 6.51329 17.9101C6.0388 18.5814 5.67369 19.3227 5.43139 20.1069C5.40623 20.1569 5.40623 20.2069 5.40623 20.2319C3.41855 18.2335 2.18568 15.5366 2.18568 12.5397C2.18568 6.521 7.14231 1.60068 13.206 1.60068C19.2697 1.60068 24.2263 6.521 24.2263 12.5397C24.223 15.4147 23.0741 18.1713 21.0309 20.2069V20.2069Z" fill="white"/>
</g>
<path d="M37.829 18.0684H36.1984L39.8624 7.88654H41.6373L45.3013 18.0684H43.6707L40.7921 9.73597H40.7126L37.829 18.0684ZM38.1025 14.0811H43.3922V15.3738H38.1025V14.0811ZM49.7459 18.2225C49.0068 18.2225 48.3705 18.0551 47.8368 17.7203C47.3065 17.3823 46.8989 16.9166 46.6138 16.3233C46.3288 15.7301 46.1863 15.0506 46.1863 14.285C46.1863 13.5094 46.3321 12.825 46.6238 12.2317C46.9154 11.6351 47.3264 11.1694 47.8567 10.8347C48.387 10.4999 49.0118 10.3326 49.731 10.3326C50.311 10.3326 50.8281 10.4403 51.2822 10.6557C51.7362 10.8678 52.1025 11.1661 52.3809 11.5506C52.6626 11.9351 52.83 12.3842 52.883 12.8979H51.4363C51.3567 12.54 51.1744 12.2317 50.8894 11.9732C50.6077 11.7147 50.2298 11.5854 49.7559 11.5854C49.3416 11.5854 48.9787 11.6948 48.6671 11.9135C48.3589 12.129 48.1186 12.4372 47.9462 12.8382C47.7739 13.236 47.6877 13.7066 47.6877 14.2502C47.6877 14.807 47.7722 15.2876 47.9413 15.6919C48.1103 16.0963 48.3489 16.4095 48.6572 16.6316C48.9687 16.8536 49.335 16.9647 49.7559 16.9647C50.0376 16.9647 50.2928 16.9133 50.5215 16.8105C50.7535 16.7045 50.9474 16.5537 51.1032 16.3581C51.2623 16.1626 51.3733 15.9273 51.4363 15.6522H52.883C52.83 16.146 52.6692 16.5868 52.4008 16.9746C52.1323 17.3624 51.7727 17.6673 51.3219 17.8894C50.8745 18.1114 50.3492 18.2225 49.7459 18.2225ZM57.6893 18.2225C56.9502 18.2225 56.3138 18.0551 55.7802 17.7203C55.2499 17.3823 54.8422 16.9166 54.5572 16.3233C54.2722 15.7301 54.1296 15.0506 54.1296 14.285C54.1296 13.5094 54.2755 12.825 54.5671 12.2317C54.8588 11.6351 55.2698 11.1694 55.8001 10.8347C56.3304 10.4999 56.9552 10.3326 57.6744 10.3326C58.2544 10.3326 58.7714 10.4403 59.2255 10.6557C59.6796 10.8678 60.0458 11.1661 60.3242 11.5506C60.606 11.9351 60.7733 12.3842 60.8264 12.8979H59.3796C59.3001 12.54 59.1178 12.2317 58.8328 11.9732C58.551 11.7147 58.1732 11.5854 57.6992 11.5854C57.2849 11.5854 56.922 11.6948 56.6105 11.9135C56.3022 12.129 56.0619 12.4372 55.8896 12.8382C55.7172 13.236 55.6311 13.7066 55.6311 14.2502C55.6311 14.807 55.7156 15.2876 55.8846 15.6919C56.0536 16.0963 56.2923 16.4095 56.6005 16.6316C56.9121 16.8536 57.2783 16.9647 57.6992 16.9647C57.981 16.9647 58.2362 16.9133 58.4649 16.8105C58.6969 16.7045 58.8908 16.5537 59.0465 16.3581C59.2056 16.1626 59.3167 15.9273 59.3796 15.6522H60.8264C60.7733 16.146 60.6126 16.5868 60.3441 16.9746C60.0757 17.3624 59.716 17.6673 59.2653 17.8894C58.8178 18.1114 58.2925 18.2225 57.6893 18.2225ZM65.6327 18.2225C64.9167 18.2225 64.292 18.0584 63.7584 17.7303C63.2248 17.4022 62.8105 16.9431 62.5155 16.3532C62.2205 15.7632 62.073 15.0738 62.073 14.285C62.073 13.4928 62.2205 12.8001 62.5155 12.2069C62.8105 11.6136 63.2248 11.1529 63.7584 10.8248C64.292 10.4966 64.9167 10.3326 65.6327 10.3326C66.3486 10.3326 66.9733 10.4966 67.5069 10.8248C68.0406 11.1529 68.4549 11.6136 68.7498 12.2069C69.0448 12.8001 69.1923 13.4928 69.1923 14.285C69.1923 15.0738 69.0448 15.7632 68.7498 16.3532C68.4549 16.9431 68.0406 17.4022 67.5069 17.7303C66.9733 18.0584 66.3486 18.2225 65.6327 18.2225ZM65.6376 16.9746C66.1016 16.9746 66.4861 16.852 66.791 16.6067C67.096 16.3614 67.3213 16.035 67.4672 15.6273C67.6163 15.2196 67.6909 14.7705 67.6909 14.28C67.6909 13.7928 67.6163 13.3453 67.4672 12.9377C67.3213 12.5267 67.096 12.1969 66.791 11.9483C66.4861 11.6998 66.1016 11.5755 65.6376 11.5755C65.1703 11.5755 64.7825 11.6998 64.4743 11.9483C64.1694 12.1969 63.9423 12.5267 63.7932 12.9377C63.6473 13.3453 63.5744 13.7928 63.5744 14.28C63.5744 14.7705 63.6473 15.2196 63.7932 15.6273C63.9423 16.035 64.1694 16.3614 64.4743 16.6067C64.7825 16.852 65.1703 16.9746 65.6376 16.9746ZM75.6889 14.9015V10.432H77.1804V18.0684H75.7188V16.7459H75.6392C75.4636 17.1536 75.1818 17.4933 74.7941 17.7651C74.4096 18.0336 73.9307 18.1678 73.3573 18.1678C72.8667 18.1678 72.4326 18.0601 72.0547 17.8446C71.6802 17.6259 71.3852 17.3027 71.1698 16.8752C70.9576 16.4476 70.8516 15.919 70.8516 15.2892V10.432H72.3381V15.1103C72.3381 15.6306 72.4823 16.0449 72.7706 16.3532C73.059 16.6614 73.4335 16.8155 73.8942 16.8155C74.1726 16.8155 74.4494 16.7459 74.7245 16.6067C75.0029 16.4675 75.2332 16.257 75.4155 15.9753C75.6011 15.6936 75.6923 15.3356 75.6889 14.9015ZM80.6643 13.5343V18.0684H79.1778V10.432H80.6046V11.6749H80.6991C80.8747 11.2705 81.1498 10.9457 81.5243 10.7005C81.9022 10.4552 82.3778 10.3326 82.9512 10.3326C83.4716 10.3326 83.9273 10.4419 84.3184 10.6607C84.7095 10.8761 85.0127 11.1976 85.2282 11.6252C85.4436 12.0527 85.5513 12.5814 85.5513 13.2111V18.0684H84.0648V13.3901C84.0648 12.8366 83.9207 12.4041 83.6323 12.0925C83.3439 11.7776 82.9479 11.6202 82.4441 11.6202C82.0994 11.6202 81.7928 11.6948 81.5243 11.8439C81.2592 11.9931 81.0487 12.2118 80.893 12.5002C80.7405 12.7852 80.6643 13.1299 80.6643 13.5343ZM91.1096 10.432V11.6252H86.9384V10.432H91.1096ZM88.057 8.60245H89.5435V15.8262C89.5435 16.1145 89.5866 16.3316 89.6728 16.4775C89.759 16.62 89.87 16.7177 90.0059 16.7708C90.1451 16.8205 90.2959 16.8453 90.4583 16.8453C90.5776 16.8453 90.682 16.8371 90.7715 16.8205C90.861 16.8039 90.9306 16.7907 90.9803 16.7807L91.2488 18.0087C91.1626 18.0418 91.04 18.075 90.8809 18.1081C90.7218 18.1446 90.5229 18.1645 90.2843 18.1678C89.8932 18.1744 89.5286 18.1048 89.1905 17.959C88.8525 17.8132 88.579 17.5878 88.3702 17.2828C88.1614 16.9779 88.057 16.5951 88.057 16.1344V8.60245Z" fill="white"/>
<defs>
<clipPath id="clip0_329_293">
<rect width="25.1605" height="25.1006" fill="white" transform="translate(0.625732 0.0522461)"/>
</clipPath>
</defs>
</svg>
